<?xml version="1.0" encoding="UTF-8" standalone="no"?>
<svg
   xmlns:dc="http://purl.org/dc/elements/1.1/"
   xmlns:cc="http://creativecommons.org/ns#"
   xmlns:rdf="http://www.w3.org/1999/02/22-rdf-syntax-ns#"
   xmlns:svg="http://www.w3.org/2000/svg"
   xmlns="http://www.w3.org/2000/svg"
   xmlns:sodipodi="http://sodipodi.sourceforge.net/DTD/sodipodi-0.dtd"
   xmlns:inkscape="http://www.inkscape.org/namespaces/inkscape"
   width="5in"
   height="10in"
   viewBox="0 0 999.99999 2000"
   version="1.1"
   id="svg3"
   sodipodi:docname="andrew.svg"
   inkscape:version="0.92.2 5c3e80d, 2017-08-06">
  <metadata
     id="metadata9">
    <rdf:RDF>
      <cc:Work
         rdf:about="">
        <dc:format>image/svg+xml</dc:format>
        <dc:type
           rdf:resource="http://purl.org/dc/dcmitype/StillImage" />
        <dc:title></dc:title>
      </cc:Work>
    </rdf:RDF>
  </metadata>
  <defs
     id="defs7" />
  <sodipodi:namedview
     pagecolor="#ffffff"
     bordercolor="#666666"
     borderopacity="1"
     objecttolerance="10"
     gridtolerance="10"
     guidetolerance="10"
     inkscape:pageopacity="0"
     inkscape:pageshadow="2"
     inkscape:window-width="1440"
     inkscape:window-height="801"
     id="namedview5"
     showgrid="false"
     inkscape:zoom="0.36595877"
     inkscape:cx="130.49966"
     inkscape:cy="398.11712"
     inkscape:window-x="0"
     inkscape:window-y="1"
     inkscape:window-maximized="1"
     inkscape:current-layer="svg3"
     fit-margin-top="0"
     fit-margin-left="0"
     fit-margin-right="0"
     fit-margin-bottom="0" />
  <g
     id="g1583"
     transform="translate(239.76761,-167.92044)">
    <path
       sodipodi:nodetypes="ccccccscccccccsccccccccccscccccccccccccccccccccccccccsscc"
       inkscape:connector-curvature="0"
       id="path1516"
       d="m 179.77389,682.62717 c -8.34971,-0.94083 -9.20439,-1.27417 -22.30825,-8.6975 -15.10935,-8.55958 -27.51812,-16.86375 -42.062,-28.14833 l -11.41085,-8.85396 -3.50154,-8.93625 C 98.126622,621.95655 96.060476,614.78071 94.127768,605.8903 89.915914,586.51655 89.83283,585.84259 89.110101,565.18842 L 88.44531,546.19017 c 5.931937,-0.46412 7.734479,17.07013 21.94154,52.34929 l 4.50302,10.08334 7.16669,3.74791 c 3.94169,2.06125 9.37223,4.42125 12.06787,5.24438 l 4.90117,1.49646 3.29546,8.86687 c 2.17139,5.84229 3.65292,8.86667 4.34344,8.86667 0.7001,0 2.02531,-2.82167 3.9921,-8.49979 l 2.94413,-8.49959 4.90289,-1.66479 c 6.01983,-2.04396 19.42454,-5.45417 26.60675,-6.76896 4.83638,-0.88541 5.63738,-0.86 8.53921,0.27 5.10042,1.98625 11.12362,1.71438 15.94971,-0.72 l 4.05304,-2.04437 11.16877,2.78354 c 19.78889,4.93167 17.92573,4.04771 22.17525,10.52062 2.04831,3.1198 4.16706,6.04021 4.70835,6.48938 1.42569,1.18312 2.15048,-1.20417 2.77654,-9.14521 l 0.52073,-6.605 2.50167,-1.04542 c 2.14177,-0.89479 7.64425,-4.60583 12.60512,-8.50125 0.86817,-0.68166 3.05373,-6.06708 5.85503,-14.42729 l 4.46977,-13.33958 0.0167,18.87375 0.0167,18.87375 -4.34204,7.81125 c -10.48386,18.86021 -20.50608,32.30812 -35.33913,47.41854 l -9.5416,9.72 -6.16535,1.50042 c -14.09719,3.43104 -30.56952,4.4425 -45.30344,2.78208 z m 8.73306,-28.82812 c 1.67213,-0.95334 3.8953,-3.07646 4.94038,-4.71813 2.94119,-4.62042 3.28012,-4.76458 11.19073,-4.75917 h 7.15789 l 1.72002,2.52542 c 2.28486,3.35479 6.91196,6.00854 10.43971,5.98729 3.63667,-0.0208 9.37994,-3.19021 11.49721,-6.34291 0.90342,-1.34542 2.11606,-4.0748 2.69477,-6.06542 1.06833,-3.675 1.63615,-14.26188 0.80927,-15.08875 -0.24879,-0.24875 -8.05825,-1.41938 -17.35437,-2.60125 l -16.90202,-2.14896 -17.44452,2.68542 c -9.59448,1.47687 -19.2858,3.00646 -21.53623,3.39916 l -4.09171,0.71375 v 4.83021 c 0,9.35438 4.56139,18.54188 10.80985,21.77313 5.13092,2.65333 11.20277,2.57979 16.06902,-0.19375 z"
       style="opacity:0.87999998;fill:#493628;fill-opacity:1;stroke:#493628;stroke-width:2.08333325;stroke-linecap:round;stroke-linejoin:round;stroke-miterlimit:4;stroke-dasharray:none;stroke-dashoffset:0;stroke-opacity:1" />
    <g
       style="stroke-width:1.78354669"
       transform="matrix(0.56027981,0,0,0.56108164,-362.86081,16.881422)"
       id="g1391">
      <path
         style="opacity:0.87999998;fill:#121212;fill-opacity:1;stroke:#121212;stroke-width:1.78354669;stroke-linecap:round;stroke-linejoin:round;stroke-miterlimit:4;stroke-dasharray:none;stroke-dashoffset:0;stroke-opacity:1"
         d="m 391.55594,392.48295 c -6.49041,-6.00913 -7.03973,-10.29482 -2.23744,-17.45628 2.464,-3.67447 2.65447,-5.38115 0.23305,-2.08816 -2.69577,3.66607 -4.37168,7.66815 -4.3721,10.44056 -4.4e-4,2.84695 -0.32483,3.05744 -4.72938,3.06882 -3.5427,0.009 -5.80617,-1.2816 -10.52837,-6.0038 -5.29856,-5.29857 -7.31735,-9.41434 -9.84647,-20.07436 -1.28816,-5.42948 -1.29909,-5.37163 0.8119,-4.29538 2.43789,1.2429 3.82115,1.15879 4.7705,-0.29009 0.87961,-1.34246 0.78948,-2.66979 -0.50568,-7.44702 -1.22301,-4.51109 -0.87361,-9.54161 0.93872,-13.51527 1.51786,-3.32802 1.5282,-3.32496 2.63073,0.77871 0.61401,2.28537 2.79787,4.28498 5.20577,4.76656 l 1.46827,0.29365 -0.66761,-3.79176 c -1.04729,-5.94816 -0.91949,-13.45183 0.28316,-16.62516 1.32916,-3.50713 1.82741,-4.28683 2.13136,-3.33528 1.14823,3.5948 2.16973,5.6688 3.47222,7.04984 1.34268,1.42366 1.83921,1.6306 3.89696,1.62415 3.3882,-0.0106 3.76385,-0.37293 2.78368,-2.68472 -3.59585,-8.48105 -3.36222,-16.63825 0.62583,-21.85126 l 1.36396,-1.7829 0.28561,4.17154 c 0.31277,4.56818 1.29667,6.9171 3.3894,8.09172 2.80205,1.57275 7.37371,-0.99482 8.90347,-5.00044 0.68318,-1.78888 0.71464,-2.3946 0.20583,-3.96266 -0.74246,-2.28813 -1.96507,-4.13398 -4.52673,-6.83426 l -1.97792,-2.08494 3.13983,0.31396 c 7.50753,0.75071 11.88347,2.60975 16.52486,7.02027 3.09119,2.93743 3.25712,2.92834 4.85447,-0.26604 2.22472,-4.44899 1.46709,-7.4442 -3.01732,-11.92861 -3.23911,-3.2391 -3.26624,-3.28749 -1.84343,-3.28749 2.22721,0 10.72262,1.83683 13.80675,2.98521 2.10182,0.78262 3.608,1.87132 6.28945,4.54616 3.51994,3.51124 3.52659,3.51503 3.99736,2.27684 2.11669,-5.56733 1.30511,-9.25346 -3.08925,-14.03123 l -2.01865,-2.19477 3.62288,0.23423 c 4.41618,0.28551 6.87368,1.44095 9.56305,4.49624 l 1.95189,2.21747 0.57732,-2.80109 c 0.66379,-3.22061 1.35499,-4.71677 3.1824,-6.88853 l 1.30128,-1.54647 1.53043,3.3 c 3.08441,6.65079 10.28079,10.66521 23.67753,13.20823 20.74981,3.93881 30.70556,6.9875 45.04677,13.79444 6.08662,2.88896 6.68849,3.30893 12.19186,8.50715 l 5.78916,5.46816 0.005,4.63917 0.005,4.63917 3.50211,3.04524 3.50212,3.04524 -0.16101,6.08254 -0.16101,6.08253 2.47397,1.93221 c 1.36068,1.06271 2.57766,2.36695 2.70439,2.8983 0.12672,0.53136 0.9617,4.62632 1.85549,9.09991 1.5819,7.91776 1.67,8.17085 3.31673,9.52822 3.52898,2.90889 4.39254,9.02501 2.12338,15.03883 -1.38683,3.67545 -4.47775,8.77252 -5.09021,8.394 -0.22441,-0.13869 -0.68446,-1.23951 -1.02232,-2.44626 -0.33787,-1.20674 -1.25165,-3.19906 -2.03062,-4.42737 l -1.41631,-2.23328 1.82086,-1.86474 c 1.30367,-1.33508 1.59204,-1.86473 1.01525,-1.86473 -0.44309,0 -1.0171,0.39517 -1.27559,0.87815 -0.68084,1.27217 -6.83584,6.31433 -10.2424,8.39056 -1.95205,1.18973 -3.79011,1.88977 -5.53391,2.10764 -4.20437,0.52531 -4.42269,0.18233 -1.92995,-3.03189 1.18979,-1.53416 2.5105,-3.76755 2.9349,-4.9631 1.08281,-3.05028 1.4243,-10.87959 0.7466,-17.11739 -0.98731,-9.08762 -1.36805,-9.82536 -2.69595,-5.22372 -1.90177,6.59028 -4.47676,9.29873 -8.84053,9.29873 -6.15971,0 -12.11044,-2.42391 -15.97036,-6.5052 -1.39028,-1.47003 -2.60506,-2.67276 -2.6995,-2.67276 -0.0944,0 -0.31576,0.85254 -0.4918,1.89455 -0.79784,4.72236 -4.65488,8.02633 -10.01584,8.57963 l -2.5652,0.26475 -1.10704,-3.43726 c -0.60888,-1.8905 -1.31189,-3.43727 -1.56224,-3.43727 -0.59202,0 -0.6121,-0.11875 0.53838,3.18497 1.27764,3.66888 1.74955,8.86576 0.9749,10.73593 -1.29422,3.12454 -4.34518,3.20403 -12.91469,0.33649 -18.6218,-6.23124 -31.55593,-17.19752 -35.61699,-30.19807 -0.62243,-1.99258 -1.24531,-4.52441 -1.38418,-5.62628 l -0.25247,-2.00341 5.22072,3.93561 c 10.51256,7.92482 18.53794,12.078 24.39476,12.62444 3.4209,0.31917 2.50195,-0.21475 -2.37764,-1.38144 -5.8506,-1.39887 -13.42244,-5.77066 -23.61246,-13.63324 -2.41274,-1.86165 -4.07041,-2.84238 -4.26692,-2.52442 -0.46877,0.7585 -0.0136,4.01889 1.1006,7.88417 1.60148,5.55548 4.48921,10.52971 8.68808,14.96553 l 3.77393,3.9869 -3.86116,2.84158 c -14.66031,10.78908 -24.54996,13.69097 -30.78612,9.03347 -2.70973,-2.02376 -3.65875,-4.53377 -3.893,-10.29631 l -0.20612,-5.07052 1.97147,2.03147 c 3.76708,3.88171 7.58319,5.00802 12.8385,3.78924 3.78567,-0.87796 10.42708,-3.53917 10.42708,-4.17813 0,-0.69923 -0.66147,-0.52978 -3.96326,1.01532 -1.7081,0.79931 -4.7308,1.80597 -6.71713,2.23702 -3.347,0.72633 -3.8137,0.72495 -6.37232,-0.0189 -2.17106,-0.63115 -3.33492,-1.3767 -5.44838,-3.49016 -1.47816,-1.47816 -2.8276,-2.54754 -2.99875,-2.37639 -0.17115,0.17115 -0.39811,2.47551 -0.50435,5.1208 l -0.19319,4.8096 -3.36256,1.76698 c -6.69829,3.51986 -9.22012,7.34655 -8.20661,12.45295 0.26623,1.34136 0.39409,2.53038 0.28413,2.64229 -0.3542,0.36045 -3.78281,-2.65651 -4.94834,-4.35424 -1.50766,-2.19605 -1.22955,-5.24054 0.83921,-9.18716 0.86724,-1.65445 1.26739,-2.85114 0.9156,-2.73818 -0.3437,0.11035 -1.05474,0.98876 -1.58011,1.952 -0.52536,0.96326 -1.44212,1.97322 -2.03724,2.24437 -1.60614,0.73181 -3.93404,4.21785 -4.79556,7.18137 -0.56878,1.95654 -0.67385,3.56493 -0.42012,6.43124 0.18609,2.10222 0.2335,3.82222 0.10535,3.82222 -0.12815,0 -1.76379,-1.41727 -3.63475,-3.1495 z"
         id="path1210"
         inkscape:connector-curvature="0"
         transform="scale(2.0833333)" />
      <path
         style="opacity:0.87999998;fill:#121212;fill-opacity:1;stroke:#121212;stroke-width:1.78354669;stroke-linecap:round;stroke-linejoin:round;stroke-miterlimit:4;stroke-dasharray:none;stroke-dashoffset:0;stroke-opacity:1"
         d="m 411.26381,431.2976 c 4.2086,-4.13962 7.05319,-6.23709 12.55932,-9.26064 2.94031,-1.61459 3.56958,-1.75995 9.90254,-2.2875 3.74311,-0.3118 11.07645,-0.4655 16.42373,-0.34423 l 9.66102,0.21912 4.34746,1.81827 c 2.3911,1.00005 4.50716,2.06872 4.70235,2.37481 0.42959,0.67369 0.48647,5.72827 0.0765,6.79669 -0.46929,1.22296 -3.73164,0.92675 -9.60933,-0.87249 -2.92246,-0.8946 -5.85853,-1.84507 -6.5246,-2.11215 -1.57524,-0.63162 -29.09571,1.90878 -32.75755,3.02384 -1.41366,0.43047 -4.45688,1.50953 -6.76271,2.39791 -2.30584,0.88838 -4.62717,1.76594 -5.15853,1.95013 -0.53136,0.18419 0.88157,-1.4825 3.13983,-3.70376 z"
         id="path1212"
         inkscape:connector-curvature="0"
         transform="scale(2.0833333)" />
      <path
         style="opacity:0.87999998;fill:none;fill-opacity:1;stroke:none;stroke-width:1.78354669;stroke-linecap:round;stroke-linejoin:round;stroke-miterlimit:4;stroke-dasharray:none;stroke-dashoffset:0;stroke-opacity:1"
         d="m 490.48415,428.5439 c 0,-4.70866 0.11736,-4.83973 6.82739,-7.62442 4.82954,-2.00429 7.17601,-2.6688 12.25312,-3.47003 12.33394,-1.94646 13.92398,-1.87609 21.22666,0.93942 6.06101,2.33678 7.29219,3.10378 8.60686,5.36189 1.67652,2.87962 3.44342,7.11745 3.10756,7.45332 -0.15374,0.15374 -0.88982,-0.15141 -1.63573,-0.67809 -9.84434,-6.95111 -22.43619,-7.10069 -45.31383,-0.53829 -1.85974,0.53346 -3.76176,1.07921 -4.22669,1.21277 -0.73817,0.21205 -0.84534,-0.12475 -0.84534,-2.65657 z"
         id="path1214"
         inkscape:connector-curvature="0"
         transform="scale(2.0833333)" />
      <path
         style="opacity:0.87999998;fill:#615b58;fill-opacity:1;stroke:#615b58;stroke-width:1.78354669;stroke-linecap:round;stroke-linejoin:round;stroke-miterlimit:4;stroke-dasharray:none;stroke-dashoffset:0;stroke-opacity:1"
         d="m 470.19601,570.75246 c -0.39851,-0.0961 -3.33305,-0.44044 -6.52118,-0.76526 -5.5474,-0.56518 -6.00429,-0.69893 -10.62712,-3.1108 -13.48339,-7.03469 -26.26821,-15.1546 -39.12712,-24.85048 -15.50436,-11.69058 -14.19599,-10.32028 -17.32343,-18.14347 -2.84823,-7.12476 -4.48103,-13.29076 -7.61099,-28.74153 -1.88193,-9.28996 -1.91559,-9.64531 -2.44828,-25.84122 l -0.54012,-16.42173 -6.46607,-12.3198 -6.46608,-12.31979 -4.15025,-15.2161 c -2.28263,-8.36886 -4.46282,-17.17246 -4.84485,-19.56356 -0.77151,-4.82877 -0.63106,-13.19886 0.25773,-15.35911 l 0.55568,-1.35063 4.23313,4.26957 c 2.36285,2.38319 5.20625,4.74065 6.43567,5.3358 2.36545,1.14509 6.64965,1.43943 8.83851,0.60723 1.09449,-0.41613 1.31901,-0.26949 2.4036,1.56991 0.65799,1.11591 1.86839,2.66788 2.68978,3.44883 0.82139,0.78095 1.31313,1.54175 1.09275,1.69068 -0.22037,0.14892 -1.77266,2.85405 -3.44953,6.0114 l -3.04885,5.74062 0.3332,6.09412 c 1.03151,18.86629 3.95132,36.24374 8.72681,51.93821 3.3914,11.14575 9.32672,26.43722 14.45551,37.2425 l 2.52298,5.3154 6.30954,3.22775 c 5.62004,2.87502 8.55738,4.0095 12.77134,4.93264 1.14696,0.25126 1.5387,1.02548 4.06458,8.03307 1.5374,4.26526 2.94925,7.85017 3.13744,7.96648 0.18819,0.11631 1.51514,-3.18949 2.94876,-7.34622 l 2.60659,-7.5577 4.09683,-1.38778 c 5.27227,-1.78596 15.17661,-4.35183 22.08342,-5.72105 l 5.42726,-1.07591 3.85461,1.27396 c 2.12003,0.70068 4.62985,1.27396 5.57738,1.27396 2.01723,0 6.68725,-1.4918 9.0688,-2.89695 l 1.66804,-0.98416 12.91934,3.2294 12.91934,3.2294 3.64564,5.47386 c 2.0051,3.01063 3.79958,5.47387 3.98772,5.47387 0.18815,0 0.4908,-1.90201 0.67257,-4.2267 0.18177,-2.32468 0.4591,-5.36908 0.6163,-6.76533 l 0.28581,-2.53864 2.97037,-1.46231 c 3.72323,-1.83294 10.41669,-6.8089 11.2191,-8.34034 1.19513,-2.28098 6.87158,-20.01119 8.07221,-25.21329 l 1.22636,-5.31356 -0.22556,16.1822 c -0.12407,8.90022 -0.338,18.4173 -0.4754,21.14908 l -0.24983,4.96688 -3.63416,6.32466 c -10.24479,17.82935 -18.45173,28.67066 -31.99519,42.26539 l -6.33035,6.35432 -5.2094,1.23079 c -9.98056,2.35805 -13.58539,2.81519 -23.56534,2.98843 -5.31356,0.0922 -9.98708,0.0891 -10.3856,-0.007 z m 0.91542,-25.8423 c 2.25244,-1.16316 4.99022,-4.06114 6.28895,-6.65695 l 1.02713,-2.05297 h 4.75327 c 2.6143,0 5.70745,-0.12772 6.87366,-0.28382 2.09808,-0.28085 2.13954,-0.25799 3.94023,2.17243 4.55411,6.14673 10.5821,6.97694 16.19755,2.2308 1.80164,-1.52272 3.56474,-4.76371 4.34323,-7.98381 0.73356,-3.03421 1.20167,-10.26452 0.71059,-10.97533 -0.25251,-0.36549 -5.88621,-1.27363 -14.81645,-2.38837 l -14.40903,-1.79865 -10.20676,1.57413 c -5.61372,0.86577 -13.76655,2.13658 -18.11739,2.82402 l -7.91063,1.24989 0.2424,4.63639 c 0.50067,9.57633 4.8623,16.19415 11.95597,18.14054 3.14036,0.86166 6.63632,0.59802 9.12728,-0.6883 z"
         id="path1216"
         inkscape:connector-curvature="0"
         transform="scale(2.0833333)" />
      <path
         style="opacity:0.87999998;fill:#615b58;fill-opacity:1;stroke:#615b58;stroke-width:1.78354669;stroke-linecap:round;stroke-linejoin:round;stroke-miterlimit:4;stroke-dasharray:none;stroke-dashoffset:0;stroke-opacity:1"
         d="m 550.90364,410.29592 c -0.097,-7.55183 -1.49671,-15.4809 -3.61712,-20.49079 -0.22283,-0.52649 0.40697,-1.368 2.07909,-2.77795 l 2.39876,-2.02267 1.70876,3.4156 c 1.91294,3.82375 2.57242,6.44388 1.84704,7.33839 -0.26694,0.32919 -1.27669,4.18517 -2.2439,8.56886 -2.13672,9.68432 -2.12529,9.65292 -2.17263,5.96856 z"
         id="path1218"
         inkscape:connector-curvature="0"
         transform="scale(2.0833333)" />
      <path
         style="opacity:0.87999998;fill:none;fill-opacity:0.88235294;stroke:none;stroke-width:1.78354669;stroke-linecap:round;stroke-linejoin:round;stroke-miterlimit:4;stroke-dasharray:none;stroke-dashoffset:0;stroke-opacity:1"
         d="m 491.10496,427.76775 c 0.15011,-1.4544 0.42808,-2.89542 0.61772,-3.20226 0.54818,-0.88696 6.93902,-3.66901 11.36891,-4.94909 5.58371,-1.61349 15.15411,-2.90611 19.41328,-2.62205 4.29355,0.28636 13.0174,3.53551 14.95594,5.57025 1.05235,1.10458 4.3318,6.92918 4.05867,7.20856 -0.046,0.0471 -1.82039,-0.77254 -3.943,-1.82141 -5.59059,-2.76257 -9.66741,-3.49488 -17.62623,-3.16616 -6.90535,0.2852 -13.87577,1.54007 -23.15567,4.16865 -2.83076,0.80183 -5.33037,1.45787 -5.55469,1.45787 -0.22432,0 -0.28504,-1.18997 -0.13493,-2.64436 z"
         id="path1240"
         inkscape:connector-curvature="0"
         transform="scale(2.0833333)" />
      <path
         style="opacity:0.87999998;fill:#121212;fill-opacity:1;stroke:#121212;stroke-width:1.78354669;stroke-linecap:round;stroke-linejoin:round;stroke-miterlimit:4;stroke-dasharray:none;stroke-dashoffset:0;stroke-opacity:1"
         d="m 490.48415,428.5439 c 0,-4.70866 0.11736,-4.83973 6.82739,-7.62442 4.82954,-2.00429 7.17601,-2.6688 12.25312,-3.47003 12.33394,-1.94646 13.92398,-1.87609 21.22666,0.93942 6.06101,2.33678 7.29219,3.10378 8.60686,5.36189 1.67652,2.87962 3.44342,7.11745 3.10756,7.45332 -0.15374,0.15374 -0.88982,-0.15141 -1.63573,-0.67809 -9.84434,-6.95111 -22.43619,-7.10069 -45.31383,-0.53829 -1.85974,0.53346 -3.76176,1.07921 -4.22669,1.21277 -0.73817,0.21205 -0.84534,-0.12475 -0.84534,-2.65657 z"
         id="path1244"
         inkscape:connector-curvature="0"
         transform="scale(2.0833333)" />
      <path
         style="opacity:0.87999998;fill:#daa795;fill-opacity:1;stroke:#daa795;stroke-width:1.78354669;stroke-linecap:round;stroke-linejoin:round;stroke-miterlimit:4;stroke-dasharray:none;stroke-dashoffset:0;stroke-opacity:1"
         d="m 433.66094,520.61698 -2.47998,-6.8786 -3.79968,-0.97875 c -3.67428,-0.94645 -9.39452,-3.4981 -14.45994,-6.45023 -2.35463,-1.37228 -2.55611,-1.66439 -5.26,-7.62609 -9.25154,-20.39837 -15.7607,-40.01165 -18.82203,-56.71415 -1.47662,-8.05643 -3.04767,-21.75677 -3.45789,-30.15451 l -0.30674,-6.27966 2.9505,-5.52944 c 1.62277,-3.04119 2.95049,-5.72252 2.95049,-5.95851 0,-0.236 1.06165,0.35024 2.35921,1.30274 2.77852,2.03962 3.6604,2.20299 3.25901,0.60376 -1.45983,-5.81645 -0.57686,-11.76999 2.22659,-15.01311 l 1.59499,-1.84513 -0.0102,3.1118 c -0.009,2.67568 0.18029,3.3617 1.34866,4.89487 1.35169,1.77372 5.87034,5.14912 6.89314,5.14912 0.34949,0 0.23114,-0.88254 -0.34007,-2.53602 -1.11226,-3.2196 -1.11126,-4.93933 0.004,-7.39541 1.01265,-2.22949 3.49947,-4.3661 7.58009,-6.51263 l 2.80663,-1.47637 1.25689,2.55979 c 2.35242,4.79097 7.197,6.87755 13.47997,5.80589 5.17683,-0.883 16.52144,-6.96681 22.89338,-12.27712 2.21467,-1.84568 2.36052,-1.89507 3.38135,-1.14508 8.95328,6.57787 23.43266,13.00462 30.80543,13.67316 2.50612,0.22725 2.84348,0.13354 4.3432,-1.20646 1.50045,-1.34066 1.64074,-1.71358 1.81681,-4.82955 l 0.1908,-3.37671 2.4557,-0.29084 c 5.18485,-0.61407 9.50467,-3.98929 10.31939,-8.06291 l 0.28919,-1.44595 2.35575,2.20353 c 4.24484,3.97053 11.60274,6.46526 17.41995,5.9063 3.55859,-0.34194 6.37978,-3.31906 7.89858,-8.33515 l 0.58504,-1.9322 0.42063,2.89831 c 0.23136,1.59406 0.41999,6.15889 0.4192,10.14406 -0.001,6.81015 -0.0777,7.40856 -1.26978,9.95366 -0.69758,1.48933 -2.27513,3.75864 -3.50567,5.04289 -1.53856,1.60574 -2.08154,2.49078 -1.73855,2.83378 0.27433,0.27432 2.06989,0.4909 3.99016,0.48128 2.96817,-0.0149 3.95114,-0.25286 6.55933,-1.58812 1.68737,-0.86385 3.12516,-1.50207 3.19509,-1.41825 0.46808,0.56102 2.20369,6.01314 2.67132,8.3915 0.31048,1.57908 0.75178,8.1967 0.98067,14.70581 0.22888,6.50911 0.74957,15.63877 1.15707,20.28813 2.366,26.99494 1.52541,35.53627 -5.53829,56.27543 -1.62881,4.7822 -3.07798,9.08094 -3.22038,9.55275 -0.38477,1.27482 -8.14901,6.91878 -11.56551,8.40717 l -2.97403,1.29562 -0.34325,4.79574 c -0.57227,7.99554 -0.50957,7.95531 -4.04431,2.59474 -3.54501,-5.37615 -1.62619,-4.48454 -18.82676,-8.74815 l -10.80483,-2.67825 -3.46732,1.71364 c -4.87724,2.41046 -7.68259,2.62174 -12.54178,0.94458 l -3.80413,-1.31301 -4.40719,0.79647 c -6.63625,1.19931 -15.78412,3.50555 -22.3722,5.64018 l -5.88873,1.90804 -0.92864,2.51981 c -0.51075,1.3859 -1.51967,4.31314 -2.24204,6.50499 -0.72237,2.19184 -1.45858,3.98297 -1.63602,3.9803 -0.17744,-0.003 -1.43861,-3.10025 -2.80261,-6.88348 z m 57.95188,-22.03001 c 3.64364,-3.46784 4.49611,-3.9291 7.26152,-3.9291 4.31785,0 6.10133,-1.76607 6.10133,-6.04177 0,-2.72969 -0.90829,-6.51755 -1.56283,-6.51755 -0.27643,0 -0.34015,0.46361 -0.1494,1.08686 0.18296,0.59778 0.45314,2.64524 0.60041,4.54993 0.25155,3.25342 0.19229,3.53852 -0.97893,4.70974 -1.00646,1.00646 -1.71027,1.24669 -3.65245,1.24669 -3.45963,0 -4.78038,0.65014 -7.89377,3.88573 -2.6318,2.7351 -2.88344,2.87698 -5.10253,2.87698 -1.87214,0 -2.97642,-0.38734 -5.57849,-1.95672 -2.31479,-1.39612 -4.50167,-2.23115 -7.633,-2.91457 -2.41379,-0.52682 -5.0122,-1.28027 -5.77424,-1.67434 -1.79137,-0.92635 -3.00641,-3.3055 -3.00956,-5.89293 -10e-4,-1.12913 -0.18364,-2.05297 -0.40504,-2.05297 -0.70268,0 -0.43374,4.37723 0.37346,6.07829 0.91986,1.93845 3.07496,3.37566 5.74519,3.83138 4.49012,0.76633 7.78575,1.84249 9.72194,3.17462 2.79213,1.92104 3.8827,2.30681 6.62283,2.34272 2.20517,0.0289 2.50341,-0.12842 5.31356,-2.80299 z M 447.4272,461.86106 c 0.39292,-0.24893 -2.53369,-0.50173 -7.24576,-0.62589 -7.38488,-0.1946 -8.06776,-0.29226 -10.38022,-1.48458 -2.42081,-1.24818 -5.99917,-4.99776 -8.80574,-9.22708 l -1.23921,-1.86741 2.15419,-1.87739 c 2.12872,-1.85518 9.15898,-5.73948 10.38799,-5.73948 0.44159,0 0.27799,0.63811 -0.53781,2.09773 -5.41361,9.68601 4.77514,19.90594 14.76455,14.80973 5.03062,-2.56644 6.40388,-9.48636 2.97667,-14.99959 l -1.55668,-2.50416 1.76954,0.33196 c 0.97325,0.18258 3.24974,0.88063 5.05888,1.55122 3.71585,1.37733 4.16819,2.16083 3.56598,6.17663 -0.20434,1.36265 -0.14602,2.19749 0.15352,2.19749 0.60859,0 1.23992,-4.03547 0.83226,-5.31988 -0.39528,-1.24543 -0.11765,-1.21217 2.45201,0.29375 1.17644,0.68944 2.13898,1.02594 2.13898,0.74778 0,-1.53936 -12.07837,-7.6801 -17.76403,-9.03138 -8.59803,-2.04344 -19.76943,1.31694 -29.33374,8.82363 l -2.74576,2.15506 1.13151,1.22096 c 2.04822,2.21015 9.91373,8.56678 12.59548,10.17923 1.44699,0.87002 3.58963,1.77004 4.76142,2.00004 2.82133,0.55377 14.0275,0.62284 14.86597,0.0916 z m 75.40792,-7.33477 c 5.93544,-1.36769 11.45199,-5.47439 14.2226,-10.58777 l 1.40832,-2.59917 -2.08523,-1.85048 c -5.82809,-5.17197 -16.28526,-7.80967 -24.25636,-6.11838 -4.63494,0.98344 -10.10666,4.3605 -12.49135,7.70948 -1.35978,1.90964 -0.74703,2.5163 0.70379,0.69679 l 1.11507,-1.39843 0.33017,3.34951 c 0.32561,3.30333 0.91991,5.05959 1.51181,4.46769 0.16666,-0.16665 0.071,-1.13853 -0.21256,-2.15974 -0.74102,-2.66864 -0.64578,-5.76884 0.20329,-6.61791 0.64491,-0.6449 3.76279,-1.97418 6.91835,-2.94957 1.08193,-0.33442 1.07,-0.27564 -0.33866,1.66896 -3.42433,4.72714 -2.09404,11.01185 2.86655,13.54255 3.74266,1.90937 9.35067,0.68354 11.65079,-2.54669 1.28704,-1.80748 1.71384,-5.81527 0.8863,-8.32273 -0.32423,-0.98243 -1.27296,-2.56588 -2.10829,-3.51878 l -1.51878,-1.73254 1.69068,0.33639 c 1.99121,0.39619 6.64458,2.51499 9.54585,4.34647 l 2.05362,1.2964 -0.69242,1.6572 c -0.38083,0.91145 -1.60287,2.99789 -2.71564,4.63651 -1.731,2.54902 -2.48609,3.19438 -5.22808,4.4683 -2.90409,1.34924 -3.66942,1.49135 -8.15499,1.51435 -4.56749,0.0234 -5.87372,0.29768 -4.3486,0.91308 1.08202,0.43661 6.83039,0.30853 9.04377,-0.20149 z M 412.27045,434.50198 c 8.51974,-3.37566 10.81506,-3.85926 23.97173,-5.05061 14.33848,-1.29837 14.53946,-1.28959 21.99619,0.96067 3.52141,1.06268 7.40019,1.93217 8.61951,1.93221 1.90695,5e-5 2.29535,-0.17199 2.77754,-1.23029 0.60962,-1.33795 0.73355,-4.54678 0.26593,-6.8849 -0.26499,-1.32497 -0.76349,-1.67664 -4.95127,-3.49292 l -4.65661,-2.01961 -9.42349,-0.25718 c -5.54328,-0.15128 -12.38642,-0.0181 -16.61931,0.32352 -7.94641,0.64127 -9.2591,1.09586 -16.46567,5.70206 -4.45016,2.84439 -14.17211,12.68989 -12.53066,12.68989 0.1486,0 3.30586,-1.20278 7.01611,-2.67284 z m 130.88268,-5.1833 c -0.81949,-1.96851 -2.19095,-4.74967 -3.0477,-6.18035 -1.53462,-2.56267 -1.64249,-2.6355 -7.27405,-4.9114 -8.39181,-3.3914 -10.37425,-3.58836 -20.88915,-2.07545 -8.09435,1.16463 -9.07129,1.4203 -15.02556,3.9322 -5.66845,2.39132 -6.42494,2.84898 -6.88347,4.16433 -0.74398,2.13417 -0.67755,8.0963 0.0902,8.0963 0.33294,0 2.12627,-0.44014 3.98517,-0.9781 12.33652,-3.57009 21.54436,-5.27689 28.55329,-5.29271 7.11804,-0.0161 12.01544,1.47526 17.97433,5.47347 2.1627,1.45109 3.77039,2.25104 3.85753,1.91941 0.0822,-0.31272 -0.52109,-2.17919 -1.34059,-4.1477 z"
         id="path1255"
         inkscape:connector-curvature="0"
         transform="scale(2.0833333)" />
      <path
         style="opacity:0.87999998;fill:#daa795;fill-opacity:1;stroke:#daa795;stroke-width:1.78354669;stroke-linecap:round;stroke-linejoin:round;stroke-miterlimit:4;stroke-dasharray:none;stroke-dashoffset:0;stroke-opacity:1"
         d="m 386.30225,495.82497 c -1.1077,-1.1077 -1.21651,-1.51538 -0.9669,-3.62288 0.21262,-1.79526 0.12443,-2.37473 -0.36142,-2.37473 -0.91442,0 -1.67275,1.05681 -2.02611,2.82358 -0.16762,0.83813 -0.47106,1.52388 -0.6743,1.52388 -0.69923,0 -6.04415,-4.17824 -7.3881,-5.77543 -2.08948,-2.48321 -2.94014,-4.46769 -6.5569,-15.2965 -4.02854,-12.06168 -5.83753,-19.87328 -6.20196,-26.78136 -0.32669,-6.19248 0.34574,-9.52519 2.3921,-11.85587 2.27566,-2.59183 2.49451,-2.51458 11.52437,4.0677 1.84441,1.34448 2.74208,2.65624 5.61964,8.21187 l 3.42459,6.61179 0.54282,16.18221 c 0.44915,13.38955 0.73532,17.16171 1.65826,21.85805 0.61348,3.12171 0.92342,5.67584 0.68875,5.67584 -0.23468,0 -0.98835,-0.56166 -1.67484,-1.24815 z m -3.89387,-21.06095 c -1.63093,-2.46849 -1.70338,-5.79447 -0.22692,-10.41776 l 0.9642,-3.01923 -3.8645,-5.43416 c -9.61778,-13.52428 -14.02976,-17.41309 -14.93379,-13.16297 -0.51659,2.4287 -0.46961,10.86865 0.0605,10.86865 0.28575,0 0.48305,-1.75106 0.48305,-4.28708 0,-4.59472 0.36719,-7.30614 0.98942,-7.30614 0.21208,0 1.00943,0.52491 1.77188,1.16647 l 1.38627,1.16647 -0.84184,5.717 c -0.96474,6.55162 -1.06575,8.37379 -0.46418,8.37379 0.23447,0 0.57752,-1.57596 0.76234,-3.50212 0.18483,-1.92617 0.59077,-4.89729 0.9021,-6.60249 l 0.56604,-3.10037 3.13983,3.98771 c 1.72691,2.19324 3.13983,4.22114 3.13983,4.50643 0,0.28529 -0.7608,0.77326 -1.69067,1.08438 -2.55819,0.85593 -3.13201,2.88465 -3.12644,11.05343 l 0.005,6.70239 1.65934,1.38528 c 2.04147,1.70429 4.35309,2.19568 6.37983,1.35618 1.38654,-0.57432 1.58708,-0.53838 2.28644,0.40976 1.45155,1.96792 2.0269,1.13434 0.65268,-0.94562 z"
         id="path1257"
         inkscape:connector-curvature="0"
         transform="scale(2.0833333)" />
      <path
         style="opacity:0.87999998;fill:#daa795;fill-opacity:1;stroke:#daa795;stroke-width:1.78354669;stroke-linecap:round;stroke-linejoin:round;stroke-miterlimit:4;stroke-dasharray:none;stroke-dashoffset:0;stroke-opacity:1"
         d="m 374.4883,473.81328 c -1.49628,-0.86767 -1.79825,-1.33778 -2.05296,-3.19615 -0.46246,-3.37397 -0.35358,-8.9861 0.22684,-11.6925 0.46087,-2.14894 0.73545,-2.538 2.23272,-3.1636 0.93898,-0.39233 1.9524,-0.70881 2.25205,-0.70328 0.29966,0.006 1.49408,1.45463 2.65428,3.22022 l 2.10945,3.21018 -1.05748,4.31188 c -0.69837,2.84765 -0.95128,4.94043 -0.74475,6.16284 0.26128,1.54654 0.15307,1.9364 -0.65793,2.37044 -1.4518,0.77697 -3.00655,0.61404 -4.96222,-0.52003 z"
         id="path1259"
         inkscape:connector-curvature="0"
         transform="scale(2.0833333)" />
      <path
         sodipodi:nodetypes="ssccccssccscsssscccs"
         style="opacity:0.87999998;fill:#daa795;fill-opacity:1;stroke:#daa795;stroke-width:1.78354669;stroke-linecap:round;stroke-linejoin:round;stroke-miterlimit:4;stroke-dasharray:none;stroke-dashoffset:0;stroke-opacity:1"
         d="m 461.73252,544.50803 c -6.55096,-2.2652 -10.21324,-7.9326 -10.73645,-16.61476 -0.24853,-4.12408 -0.23205,-4.20576 0.89923,-4.45856 3.28964,-0.73511 32.82874,-5.10956 34.49611,-5.10854 1.69938,10e-4 21.3419,2.36532 26.49911,3.18957 l 1.87671,0.29995 -0.32468,4.301 c -0.63799,8.4513 -2.95057,12.98187 -7.77268,15.22741 -2.95379,1.37551 -5.01932,1.43056 -7.43502,0.19816 -1.92728,-0.98323 -4.61365,-3.73207 -5.45776,-5.58469 -0.48606,-1.06678 -0.63101,-1.0855 -6.84603,-0.88417 -9.14296,0.29618 -9.05202,0.27169 -10.39239,2.79831 -1.7285,3.25827 -4.72264,5.96918 -7.5056,6.79563 -3.04682,0.90481 -4.30235,0.87741 -7.30055,-0.15931 z m 33.21895,-17.2832 c 7.05534,-0.86457 10.50726,-1.58974 10.50726,-2.20734 0,-0.26156 -0.38041,-0.36635 -0.84534,-0.23286 -2.30749,0.66253 -10.75398,1.79648 -16.78602,2.25355 -20.00106,18.97632 -22.98731,2.46646 -3.86441,1.09312 2.92246,-0.11608 7.86729,-0.52399 10.98851,-0.90647 z"
         id="path1261"
         inkscape:connector-curvature="0"
         transform="scale(2.0833333)" />
      <path
         style="opacity:0.87999998;fill:#daa795;fill-opacity:1;stroke:#daa795;stroke-width:1.78354669;stroke-linecap:round;stroke-linejoin:round;stroke-miterlimit:4;stroke-dasharray:none;stroke-dashoffset:0;stroke-opacity:1"
         d="m 553.27969,465.17849 c -10e-4,-12.25211 -0.58516,-25.275 -1.65669,-36.94011 -0.70505,-7.67545 -0.60584,-7.97034 2.68148,-7.97034 1.75261,0 1.83508,0.0799 2.83228,2.74518 l 1.0271,2.74518 -1.35469,2.93067 c -1.74803,3.78161 -1.74173,6.58584 0.0391,17.42219 2.00604,12.20651 2.12903,15.08781 0.77757,18.21604 -0.60712,1.40533 -1.49891,4.3544 -1.98175,6.55349 -0.48283,2.19909 -1.21211,4.47553 -1.62062,5.05875 -0.67695,0.96649 -0.74284,0.0133 -0.74381,-10.76105 z"
         id="path1263"
         inkscape:connector-curvature="0"
         transform="scale(2.0833333)" />
      <path
         style="opacity:0.87999998;fill:#121212;fill-opacity:1;stroke:#121212;stroke-width:1.78354669;stroke-linecap:round;stroke-linejoin:round;stroke-miterlimit:4;stroke-dasharray:none;stroke-dashoffset:0;stroke-opacity:1"
         d="m 418.75135,451.4762 -3.35138,-3.03766 2.95941,-2.1786 c 4.20955,-3.09889 10.93121,-6.45 15.39226,-7.67387 4.36014,-1.19619 10.53668,-1.10697 13.98251,0.20196 2.54345,0.96616 1.83039,0.97263 -3.13983,0.0285 -4.06324,-0.77183 -4.15739,-0.76717 -9.0548,0.44839 -2.72187,0.67558 -6.30852,1.8982 -7.97034,2.71692 -3.47956,1.71427 -8.57656,5.59813 -8.57656,6.53526 0,0.35029 0.7666,1.77605 1.70354,3.16834 0.93695,1.3923 1.63672,2.59827 1.55505,2.67993 -0.0817,0.0817 -1.6566,-1.21846 -3.49986,-2.88918 z"
         id="path1265"
         inkscape:connector-curvature="0"
         transform="scale(2.0833333)" />
      <path
         style="opacity:0.87999998;fill:#121212;fill-opacity:1;stroke:#121212;stroke-width:1.78354669;stroke-linecap:round;stroke-linejoin:round;stroke-miterlimit:4;stroke-dasharray:none;stroke-dashoffset:0;stroke-opacity:1"
         d="m 533.97584,446.04964 c 0.009,-0.23179 0.32777,-0.96486 0.70746,-1.62906 1.42463,-2.49213 0.97635,-3.67057 -2.07706,-5.46012 -7.20035,-4.22001 -12.52611,-5.31893 -19.45634,-4.01463 -5.01456,0.94376 -5.63347,0.93933 -3.10219,-0.0222 1.06271,-0.40368 3.80441,-0.85156 6.09266,-0.99529 7.0976,-0.4458 14.33613,1.79426 19.17101,5.93274 l 2.04187,1.74776 -1.07709,1.91643 c -1.08792,1.93568 -2.33185,3.30079 -2.30032,2.52438 z"
         id="path1267"
         inkscape:connector-curvature="0"
         transform="scale(2.0833333)" />
      <path
         style="opacity:0.87999998;fill:#6e7d83;fill-opacity:1;stroke:#6e7d83;stroke-width:1.78354669;stroke-linecap:round;stroke-linejoin:round;stroke-miterlimit:4;stroke-dasharray:none;stroke-dashoffset:0;stroke-opacity:1"
         d="m 437.65639,457.72148 c -7.01806,-2.50187 -8.78,-12.03787 -3.03398,-16.42057 1.44209,-1.09993 2.34587,-1.3552 5.4869,-1.54973 4.49564,-0.27843 6.34529,0.50595 8.55994,3.63001 1.64095,2.31479 2.20936,6.55142 1.26349,9.41745 -1.44119,4.36684 -7.27442,6.70597 -12.27635,4.92284 z"
         id="path1273"
         inkscape:connector-curvature="0"
         transform="scale(2.0833333)" />
      <path
         style="opacity:0.87999998;fill:#6e7d83;fill-opacity:1;stroke:#6e7d83;stroke-width:1.78354669;stroke-linecap:round;stroke-linejoin:round;stroke-miterlimit:4;stroke-dasharray:none;stroke-dashoffset:0;stroke-opacity:1"
         d="m 513.40512,450.98689 c -6.07765,-2.64726 -5.92544,-11.53719 0.25096,-14.65741 3.7697,-1.9044 6.67708,-1.12143 9.47961,2.55288 1.94287,2.54723 2.22796,6.9876 0.60052,9.35354 -2.1431,3.11563 -6.70505,4.33039 -10.33109,2.75099 z"
         id="path1277"
         inkscape:connector-curvature="0"
         transform="scale(2.0833333)" />
      <path
         style="opacity:0.87999998;fill:#615b58;fill-opacity:0.88235294;stroke:#615b58;stroke-width:1.78354669;stroke-linecap:round;stroke-linejoin:round;stroke-miterlimit:4;stroke-dasharray:none;stroke-dashoffset:0;stroke-opacity:1"
         d="m 384.81241,496.79557 c -1.13503,-1.05191 -1.43507,-2.26997 -1.00191,-4.06744 0.30911,-1.28267 0.34817,-1.32328 0.38676,-0.40206 0.0799,1.90831 0.73805,3.53904 1.78315,4.41844 0.87193,0.73368 0.93386,0.87587 0.38145,0.87587 -0.3627,0 -1.05996,-0.37116 -1.54945,-0.82481 z"
         id="path1279"
         inkscape:connector-curvature="0"
         transform="scale(2.0833333)" />
      <path
         style="opacity:0.87999998;fill:#daa794;fill-opacity:1;stroke:#daa794;stroke-width:1.78354669;stroke-linecap:round;stroke-linejoin:round;stroke-miterlimit:4;stroke-dasharray:none;stroke-dashoffset:0;stroke-opacity:1"
         d="m 456.61491,602.77484 c -6.54642,-1.76318 -14.69438,-6.94648 -22.27072,-14.16744 l -6.64344,-6.33182 0.76628,-4.2953 c 0.42145,-2.36241 0.76627,-8.53431 0.76627,-13.71532 0,-5.18102 0.157,-9.41979 0.34888,-9.41949 0.19189,2.9e-4 3.88723,2.10858 8.21187,4.68509 16.88754,10.06113 18.13728,10.60803 26.69203,11.6807 11.30472,1.4175 20.48073,1.28198 30.55711,-0.45128 11.72769,-2.0173 14.84383,-3.11188 18.37745,-6.45527 l 3.03479,-2.87141 0.6617,6.12584 c 0.36393,3.36922 1.02565,7.52928 1.47049,9.2446 0.71545,2.75878 0.38208,3.65469 -2.88835,7.76217 -3.68315,4.62584 -11.90867,11.5407 -18.37625,15.44816 -6.16109,3.7223 -30.90706,5.40054 -40.70811,2.76077 z"
         id="path1281"
         inkscape:connector-curvature="0"
         transform="scale(2.0833333)" />
      <path
         style="opacity:0.87999998;fill:#daa794;fill-opacity:1;stroke:none;stroke-width:1.78354669;stroke-linecap:round;stroke-linejoin:round;stroke-miterlimit:4;stroke-dasharray:none;stroke-dashoffset:0;stroke-opacity:1"
         d="m 619.70025,1092.408 c -2.13552,-0.874 -2.80811,-2.236 -2.45209,-4.9655 0.53849,-4.1283 0.73005,-4.5219 2.6055,-5.3535 0.97834,-0.4339 2.57291,-1.4459 3.54349,-2.249 1.75696,-1.4537 1.7657,-1.4797 1.99338,-5.9317 0.12578,-2.4594 0.78509,-7.2974 1.46514,-10.7513 1.58896,-8.0699 2.45139,-16.1648 2.05437,-19.2826 -0.17191,-1.3501 -0.8793,-3.5891 -1.57196,-4.9756 -1.25263,-2.5074 -1.25488,-2.5328 -0.41957,-4.72 0.4619,-1.2095 1.92576,-3.4987 3.25301,-5.0871 2.89163,-3.4606 2.39751,-3.8522 -0.69248,-0.5487 -4.53075,4.8437 -4.75667,6.2087 -5.05812,30.5602 l -0.23683,19.1327 -2.61542,1.7223 c -2.28211,1.5029 -2.81113,1.6663 -4.15121,1.282 -0.84469,-0.2423 -1.87143,-0.7761 -2.28164,-1.1863 -1.08716,-1.0872 -1.38335,-6.588 -1.43164,-26.588 l -0.0421,-17.42 -1.45306,-4.2987 c -0.79918,-2.3643 -2.15244,-7.0242 -3.00725,-10.3554 -1.30196,-5.0738 -1.55612,-6.9584 -1.56602,-11.6119 -0.0103,-4.8381 0.16808,-6.1039 1.38194,-9.80731 2.10973,-6.43666 2.65713,-7.04716 7.78956,-8.68738 6.73362,-2.15194 11.79351,-1.78359 22.58118,1.64384 3.80411,1.20863 4.75419,1.69725 4.92382,2.53229 0.1156,0.56908 1.02147,9.48776 2.01305,19.81936 1.76833,18.4249 1.78713,18.8413 0.98131,21.7373 -3.23961,11.6428 -5.29519,20.4858 -6.35683,27.3467 -0.67832,4.3837 -1.56121,9.2716 -1.96197,10.862 -0.72834,2.8905 -1.98876,5.3902 -2.47348,4.9055 -0.3654,-0.3654 0.71336,-9.2945 1.84657,-15.2845 0.95258,-5.0352 4.09238,-17.9762 5.41145,-22.3038 0.53047,-1.7404 0.57215,-2.7635 0.18206,-4.4682 -0.27827,-1.2161 -0.6867,-2.211 -0.90762,-2.211 -0.51791,0 -0.50875,0.8406 0.0296,2.7177 0.33279,1.1604 0.10554,2.6489 -0.9951,6.518 -3.30501,11.6183 -6.6525,29.1989 -6.67438,35.053 -0.007,1.8797 -0.23037,2.2191 -3.17927,4.8305 -3.52297,3.1198 -10.24598,7.8977 -11.04602,7.8501 -0.28343,-0.017 -0.95006,-0.2085 -1.48142,-0.426 z"
         id="path1297"
         inkscape:connector-curvature="0"
         transform="scale(2.0833333)" />
      <path
         style="opacity:0.87999998;fill:#daa794;fill-opacity:1;stroke:none;stroke-width:1.78354669;stroke-linecap:round;stroke-linejoin:round;stroke-miterlimit:4;stroke-dasharray:none;stroke-dashoffset:0;stroke-opacity:1"
         d="m 359.80398,1122.1347 c -2.38221,-1.119 -2.43914,-1.2 -7.53789,-10.7305 -6.10032,-11.4027 -10.60011,-21.3708 -10.93128,-24.2154 -0.28655,-2.4612 -1.07947,-2.7432 -1.07947,-0.3839 0,2.7917 5.04679,13.8942 12.51333,27.5281 2.51028,4.5837 3.2633,6.3542 2.82185,6.6345 -0.81448,0.5172 -1.49865,0.4912 -3.1067,-0.1181 -2.50433,-0.9488 -3.49941,-2.4068 -5.03168,-7.3722 -2.07412,-6.7213 -4.32122,-12.4712 -7.42867,-19.0086 -1.46654,-3.0853 -2.66644,-6.23 -2.66644,-6.9881 0,-0.7582 -0.21737,-1.3785 -0.48305,-1.3785 -1.12734,0 -0.31751,3.3051 1.99001,8.1217 3.84736,8.0308 8.64963,21.0098 8.01026,21.6492 -0.45739,0.4574 -1.86803,-0.5079 -2.47231,-1.6918 -0.3565,-0.6984 -0.93037,-2.9001 -1.27527,-4.8927 -0.49138,-2.8389 -1.54942,-5.4882 -4.88904,-12.2423 l -4.26196,-8.6195 v -7.1303 c 0,-12.3156 1.43495,-25.7801 4.12106,-38.6689 1.087,-5.2158 1.26941,-5.6536 2.98655,-7.1685 3.1856,-2.8103 7.92564,-5.2891 13.90511,-7.2715 6.44139,-2.1356 17.1483,-4.539 17.1483,-3.8494 0,0.9127 3.4183,7.5554 5.8073,11.2851 1.36139,2.1255 3.44287,5.7728 4.62553,8.1052 l 2.15029,4.2407 1.90534,22.8801 c 1.74325,20.9335 2.98387,31.7212 4.30997,37.4768 0.27499,1.1936 0.5053,3.2282 0.51179,4.5214 0.0105,2.0946 -0.19301,2.5562 -1.86356,4.2267 -1.9976,1.9976 -4.24532,2.5065 -5.32504,1.2055 -1.05236,-1.268 -3.36674,-8.3786 -6.78847,-20.8564 -3.23805,-11.8081 -7.08394,-22.8374 -8.47198,-24.2962 -0.72076,-0.7574 -0.64088,-1.0425 -2.21201,7.8937 -1.46749,8.3466 -0.60028,15.173 2.6874,21.1542 1.35906,2.4725 3.14649,8.5917 3.14649,10.7719 0,0.1055 0.70646,-0.2388 1.56992,-0.7653 1.71131,-1.0434 3.49989,-1.2132 5.3539,-0.5083 0.83466,0.3173 1.42148,1.1469 1.96485,2.7775 1.30428,3.9142 2.48091,5.4649 4.1466,5.4649 1.68981,0 1.83544,0.4732 0.51372,1.6694 -0.86115,0.7793 -1.29238,0.8009 -4.99451,0.2501 -2.31741,-0.3448 -5.27417,-0.4636 -6.90704,-0.2777 -6.78407,0.7727 -8.8932,0.8702 -8.8932,0.4112 0,-0.2611 -3.7402,-8.0575 -8.31156,-17.3253 -4.57136,-9.2678 -8.28582,-16.9593 -8.25434,-17.0921 0.0315,-0.1328 0.20921,-1.0567 0.39498,-2.053 0.47804,-2.5637 -0.46378,-2.2891 -1.05822,0.3086 -0.48512,2.12 -0.48504,2.1201 8.09976,19.4333 4.72168,9.5223 8.54436,17.3413 8.49484,17.3756 -0.94371,0.6534 -2.93337,0.4595 -4.93546,-0.4809 z"
         id="path1299"
         inkscape:connector-curvature="0"
         transform="scale(2.0833333)" />
      <path
         style="opacity:0.87999998;fill:#0c0b09;fill-opacity:1;stroke:#0c0b09;stroke-width:1.78354669;stroke-linecap:round;stroke-linejoin:round;stroke-miterlimit:4;stroke-dasharray:none;stroke-dashoffset:0;stroke-opacity:1"
         d="m 459.9491,623.22209 c -5.84022,-0.38685 -12.39753,-1.52871 -16.65017,-2.89938 -4.56206,-1.4704 -7.14875,-2.83289 -11.60831,-6.11446 -6.71599,-4.94197 -14.25677,-13.85614 -18.48795,-21.85512 -1.13879,-2.15286 -1.14696,-2.18461 -0.85141,-3.30812 0.57268,-2.17699 2.28039,-4.00623 5.70184,-6.10765 1.57064,-0.96467 4.73165,-1.93357 7.11634,-2.18127 0.92987,-0.0966 1.82653,-0.2844 1.99258,-0.41737 0.21241,-0.1701 0.30081,-0.1435 0.29821,0.0897 -0.005,0.43401 -0.47053,1.17236 -0.47565,0.75415 -0.002,-0.16605 -0.16673,-0.3019 -0.36599,-0.3019 -0.62995,0 -0.40404,0.48098 1.17485,2.50131 4.37162,5.59388 11.20962,11.64664 17.4583,15.45346 3.30443,2.01312 7.35902,3.96445 9.56041,4.60108 7.54496,2.18196 18.41004,2.30097 34.31121,0.37581 4.71137,-0.57041 5.11741,-0.71807 9.90874,-3.60343 8.36268,-5.03604 15.45521,-11.48154 20.17805,-18.33728 l 1.17126,-1.70021 0.57833,0.62006 c 0.70266,0.75335 2.00489,1.41783 5.10826,2.60655 2.52384,0.96674 4.96554,2.44401 5.57371,3.3722 0.33008,0.50376 0.33441,0.74083 0.0369,2.01632 -1.35334,5.80124 -5.14418,12.08727 -10.61891,17.60839 -5.61987,5.66752 -12.30402,10.11566 -17.88999,11.90538 -7.34434,2.35309 -17.66418,4.16169 -27.64218,4.84442 -3.21659,0.2201 -12.71168,0.26724 -15.57839,0.0774 z"
         id="path1305"
         inkscape:connector-curvature="0"
         transform="scale(2.0833333)" />
      <path
         style="opacity:0.87999998;fill:#0c0b09;fill-opacity:1;stroke:#0c0b09;stroke-width:1.78354669;stroke-linecap:round;stroke-linejoin:round;stroke-miterlimit:4;stroke-dasharray:none;stroke-dashoffset:0;stroke-opacity:1"
         d="m 597.64781,939.61884 c -5.94256,-21.01881 -11.02992,-39.52025 -11.30524,-41.11432 -0.27533,-1.59406 -2.93644,-23.54873 -5.91359,-48.78813 -6.04749,-51.26889 -5.96317,-48.18516 -2.69468,-98.54238 0.81048,-12.48686 1.62932,-38.81423 1.81964,-58.50525 l 0.34606,-35.80187 3.06228,-9.60491 c 1.68426,-5.2827 5.17237,-14.09354 7.75134,-19.57964 l 4.68906,-9.97472 3.69067,2.96591 c 9.89862,7.95474 16.82915,28.30847 22.96968,67.45785 4.17701,26.63081 4.81637,42.41875 3.4154,84.33771 -0.68643,20.53895 -0.94729,39.69202 -0.57967,42.56237 0.36761,2.87036 2.13055,8.69679 3.91764,12.94764 8.31407,19.77614 10.11035,33.47189 10.13679,77.28814 0.0189,31.27354 0.48118,43.08776 2.5272,64.58144 l 0.62972,6.61535 -3.27394,-1.78484 c -2.60659,-1.42102 -5.18315,-1.75848 -12.6404,-1.65554 -7.96797,0.10998 -9.99184,0.47882 -13.55489,2.47024 l -4.18842,2.34095 z"
         id="path1311"
         inkscape:connector-curvature="0"
         transform="scale(2.0833333)" />
      <path
         style="opacity:0.87999998;fill:#0c0b09;fill-opacity:1;stroke:#0c0b09;stroke-width:1.78354669;stroke-linecap:round;stroke-linejoin:round;stroke-miterlimit:4;stroke-dasharray:none;stroke-dashoffset:0;stroke-opacity:1"
         d="m 459.73172,969.86996 c -22.06598,-0.75255 -63.8377,-4.45738 -65.15947,-5.77914 -1.18815,-1.18816 -1.19757,-17.40893 -0.02,-34.44942 1.17075,-16.94204 1.11112,-19.67331 -0.90711,-41.54237 -1.18814,-12.87444 -4.10612,-35.36357 -6.4844,-49.97586 -2.37829,-14.61229 -5.35736,-37.39409 -6.62017,-50.62621 l -2.29601,-24.05841 2.31108,-17.48397 c 1.27109,-9.61618 2.97668,-22.30199 3.79019,-28.1907 2.89011,-20.9203 1.49229,-36.95482 -4.47487,-51.33158 -3.67742,-8.86005 -14.04555,-24.53217 -23.05416,-34.84791 -3.84481,-4.40268 -6.82497,-8.13138 -6.62256,-8.28599 1.23257,-0.94155 60.14715,-31.53117 60.72796,-31.53117 0.39208,0 2.37885,2.69911 4.41505,5.99801 4.70303,7.61953 14.00784,16.90426 20.35633,20.31241 8.74218,4.6932 15.6865,5.96707 32.25002,5.91599 17.23917,-0.0532 31.6673,-2.51048 40.55068,-6.90632 7.59955,-3.76056 17.68467,-13.60024 21.2478,-20.7307 1.61168,-3.22526 2.93033,-6.45795 2.93033,-7.18376 0,-1.05606 0.62039,-0.99883 3.10594,0.2865 1.70827,0.88338 12.5811,5.62968 24.16184,10.54734 11.58074,4.91766 24.06692,10.73002 27.74706,12.91635 l 6.69116,3.97514 -4.71605,9.89639 c -2.59381,5.44301 -6.15245,14.02647 -7.90807,19.07435 l -3.19205,9.17797 -0.48305,31.84278 -0.48305,31.84278 -3.38135,0.7289 c -10.84424,2.33767 -40.2768,6.77943 -53.1356,8.01889 -20.01286,1.92901 -51.70851,3.23152 -97.99764,4.02714 -21.02248,0.36133 -38.2227,1.02143 -38.2227,1.46688 0,0.99661 -2.13513,1.00382 46.37288,-0.15644 75.40338,-1.80357 109.14823,-4.53292 139.42826,-11.27727 3.62411,-0.8072 6.77869,-1.27824 7.01017,-1.04676 0.2315,0.23149 -0.21311,10.8159 -0.988,23.5209 -0.7749,12.70499 -1.89158,33.53389 -2.48152,46.28643 l -1.07262,23.18644 4.33973,34.77967 c 2.38685,19.12881 5.48652,45.43093 6.88815,58.44915 1.40163,13.01822 3.09823,28.66907 3.77021,34.77966 0.77074,7.00872 0.88049,11.33707 0.2973,11.7248 -1.69515,1.12699 -32.87068,8.50387 -46.08998,10.906 -24.09508,4.3784 -56.51784,6.63268 -82.6017,5.74311 z"
         id="path1313"
         inkscape:connector-curvature="0"
         transform="scale(2.0833333)" />
      <path
         style="opacity:0.87999998;fill:#0c0b09;fill-opacity:1;stroke:#0c0b09;stroke-width:1.78354669;stroke-linecap:round;stroke-linejoin:round;stroke-miterlimit:4;stroke-dasharray:none;stroke-dashoffset:0;stroke-opacity:1"
         d="m 335.58766,1013.5228 c 0,-0.237 -4.31364,-23.6046 -9.58585,-51.92799 -7.69754,-41.35271 -9.73175,-54.16143 -10.32652,-65.02249 -0.40737,-7.43898 -0.78117,-50.47881 -0.83066,-95.64407 -0.0637,-58.17001 -0.44558,-85.80127 -1.30929,-94.74619 -1.10092,-11.40154 -1.02854,-14.30929 0.74545,-29.94915 1.08061,-9.52688 2.21539,-18.89589 2.52173,-20.82002 0.4476,-2.81137 2.8645,-5.92315 12.30687,-15.84513 7.29097,-7.66132 13.17983,-12.98693 15.51801,-14.03376 l 3.76814,-1.68705 4.94775,5.82785 c 27.35896,32.2255 34.49535,51.79585 30.21338,82.85515 -0.84244,6.11059 -2.47623,18.71822 -3.63065,28.01695 -1.15442,9.29872 -2.5365,17.18895 -3.0713,17.53385 -0.53479,0.34489 -0.72242,1.27837 -0.41696,2.0744 0.30547,0.79602 -0.5013,9.86087 -1.79281,20.14411 -1.29151,10.28323 -3.81387,33.47814 -5.60525,51.54425 l -3.25706,32.84745 1.88718,10.14407 c 1.744,9.37449 1.88401,14.61268 1.84548,69.0462 l -0.0417,58.90217 -6.55738,1.1286 c -7.16552,1.2334 -18.10585,5.0964 -23.00053,8.1215 -3.06808,1.8961 -4.32803,2.3297 -4.32803,1.4893 z"
         id="path1315"
         inkscape:connector-curvature="0"
         transform="scale(2.0833333)" />
      <path
         style="opacity:0.87999998;fill:#0c0b09;fill-opacity:1;stroke:#0c0b09;stroke-width:1.78354669;stroke-linecap:round;stroke-linejoin:round;stroke-miterlimit:4;stroke-dasharray:none;stroke-dashoffset:0;stroke-opacity:1"
         d="m 453.76628,997.46454 c -13.46216,-1.03599 -36.3876,-3.67499 -48.6193,-5.59666 l -10.14407,-1.59369 -0.27058,-12.3385 -0.27058,-12.3385 2.20278,0.50749 c 4.42242,1.01885 30.71716,3.36887 50.02482,4.47082 45.99534,2.62512 84.78483,-1.08514 128.80631,-12.32047 7.34644,-1.87498 13.59771,-3.16853 13.89169,-2.87454 0.63935,0.63935 4.04511,18.53518 4.10647,21.57777 0.0369,1.83058 -1.08287,2.49062 -7.92735,4.67267 -22.90144,7.30107 -53.2274,13.7221 -74.97524,15.87479 -11.30461,1.11898 -42.03886,1.09671 -56.82495,-0.0412 z"
         id="path1317"
         inkscape:connector-curvature="0"
         transform="scale(2.0833333)" />
      <path
         style="opacity:0.87999998;fill:#0c0b09;fill-opacity:1;stroke:#0c0b09;stroke-width:1.78354669;stroke-linecap:round;stroke-linejoin:round;stroke-miterlimit:4;stroke-dasharray:none;stroke-dashoffset:0;stroke-opacity:1"
         d="m 637.49444,991.12631 c -5.96786,-2.21915 -15.6656,-2.67744 -21.06643,-0.99555 -4.61556,1.43736 -4.64794,1.43201 -5.54024,-0.9149 -0.49364,-1.2984 -1.01291,-4.19766 -1.15391,-6.44281 -0.24805,-3.94961 -0.11648,-4.15263 4.05427,-6.25581 5.75423,-2.90169 18.76586,-3.05848 24.84288,-0.29936 3.73738,1.69687 4.08168,2.17614 4.66947,6.49997 1.458,10.72519 1.2468,11.03106 -5.80604,8.40846 z"
         id="path1319"
         inkscape:connector-curvature="0"
         transform="scale(2.0833333)" />
      <path
         style="opacity:0.87999998;fill:#0c0b09;fill-opacity:1;stroke:#0c0b09;stroke-width:1.78354669;stroke-linecap:round;stroke-linejoin:round;stroke-miterlimit:4;stroke-dasharray:none;stroke-dashoffset:0;stroke-opacity:1"
         d="m 338.14372,1030.6109 c -0.80207,-2.5195 -1.74597,-6.8624 -2.09756,-9.6509 l -0.63925,-5.07 9.08524,-4.3923 c 8.91433,-4.3097 24.09823,-8.3352 25.64084,-6.7977 0.39456,0.3932 0.71738,4.6341 0.71738,9.424 v 8.7091 l -8.69492,2.2063 c -10.38272,2.6345 -15.2492,4.5813 -19.43658,7.7751 l -3.11685,2.3774 z"
         id="path1321"
         inkscape:connector-curvature="0"
         transform="scale(2.0833333)" />
      <path
         style="opacity:0.87999998;fill:#0c0b09;fill-opacity:1;stroke:#0c0b09;stroke-width:1.78354669;stroke-linecap:round;stroke-linejoin:round;stroke-miterlimit:4;stroke-dasharray:none;stroke-dashoffset:0;stroke-opacity:1"
         d="m 446.39521,1578.386 c -6.96893,-8.5046 -12.83924,-10.9504 -24.01067,-10.0034 -4.95195,0.4197 -10.32914,1.1667 -11.94931,1.66 -2.78835,0.8488 -2.9861,0.3607 -3.70059,-9.1345 -0.41516,-5.5172 -1.73152,-34.3168 -2.92526,-63.9991 -1.19373,-29.6823 -3.35533,-73.6422 -4.80354,-97.6886 -3.40858,-56.5968 -3.42715,-58.0327 -0.92797,-71.7294 1.16547,-6.3873 2.49845,-20.2208 2.96217,-30.7412 0.78258,-17.7539 0.21232,-24.605 -7.93937,-95.3841 l -8.7825,-76.2563 4.06169,-4.3539 c 4.51416,-4.8389 4.49412,-4.1353 0.9603,-33.7287 -2.64965,-22.1892 0.72085,-87.48992 4.86161,-94.18981 0.30188,-0.48846 7.81482,0.15245 16.69542,1.42425 37.23262,5.33211 83.41437,6.98826 108.40588,3.88757 19.92058,-2.47153 58.83571,-11.59392 72.72866,-17.04888 4.7435,-1.8625 8.77686,11.29451 15.30009,49.90957 4.82648,28.5708 6.07175,46.2501 7.55456,107.2525 2.06787,85.0718 3.83391,117.6477 6.85149,126.3804 1.95652,5.6621 2.96426,14.5874 4.08791,36.2063 2.03523,39.1574 4.51206,60.9084 11.59073,101.7874 3.31813,19.162 9.22635,57.5588 13.1294,85.3262 l 7.09646,50.4863 -4.63112,3.8957 c -8.31582,6.9952 -16.60301,11.9216 -23.95069,14.2378 -9.27142,2.9225 -15.55248,1.2319 -25.23526,-6.7924 -6.84855,-5.6756 -7.01757,-6.0055 -14.13945,-27.6046 -3.96442,-12.0232 -7.61504,-25.0653 -8.11246,-28.9824 -1.4886,-11.7222 -7.12927,-27.0487 -19.25222,-52.3109 -13.99558,-29.1645 -15.78208,-37.582 -16.38368,-77.1945 -0.41801,-27.5238 -0.79068,-30.319 -15.57413,-116.8165 -5.21444,-30.5095 -9.10489,-60.9512 -12.83379,-100.4211 l -1.67802,-17.7616 -4.09883,0.4591 c -2.25435,0.2525 -4.53726,0.8754 -5.07313,1.3842 -0.53587,0.5088 -5.59492,37.499 -11.24233,82.2005 -7.97408,63.118 -11.19002,84.633 -14.39506,96.3044 -4.01235,14.6114 -4.12708,15.8661 -4.12825,45.15 -6.7e-4,16.5666 -0.60463,42.6966 -1.34213,58.0667 -0.73751,15.3701 -2.57728,54.0756 -4.08838,86.0123 -3.63101,76.7401 -3.31197,73.8349 -8.66433,78.8985 -3.86429,3.6558 -9.22565,7.1767 -10.92804,7.1767 -0.33461,0 -2.80774,-2.684 -5.49586,-5.9645 z"
         id="path1323"
         inkscape:connector-curvature="0"
         transform="scale(2.0833333)" />
      <path
         style="opacity:0.87999998;fill:#0c0b09;fill-opacity:1;stroke:#0c0b09;stroke-width:1.78354669;stroke-linecap:round;stroke-linejoin:round;stroke-miterlimit:4;stroke-dasharray:none;stroke-dashoffset:0;stroke-opacity:1"
         d="m 400.74998,1685.5098 c -11.44623,-4.1194 -22.23434,-10.8779 -23.77629,-14.8953 -1.94739,-5.0737 6.59195,-30.1045 15.35474,-45.0084 6.99156,-11.8914 9.408,-20.9643 9.42891,-35.4025 0.0197,-13.6352 4.09966,-18.0618 18.73165,-20.3232 10.1826,-1.5737 15.15521,0.27 23.13921,8.5794 8.47431,8.8197 10.78602,8.9288 19.64278,0.9273 3.79278,-3.4266 5.60096,-4.338 6.03004,-3.0395 0.33707,1.0201 1.19138,8.9252 1.89847,17.5669 l 1.28562,15.7121 -6.16764,8.8676 c -5.91279,8.5012 -6.24883,9.5174 -8.13277,24.593 -1.83552,14.688 -2.38665,16.433 -8.35541,26.4541 -3.51465,5.9008 -7.92733,11.8256 -9.80596,13.1661 -8.26518,5.8978 -26.96499,7.2321 -39.27335,2.8024 z"
         id="path1325"
         inkscape:connector-curvature="0"
         transform="scale(2.0833333)" />
      <path
         style="opacity:0.87999998;fill:#0c0b09;fill-opacity:1;stroke:#0c0b09;stroke-width:1.78354669;stroke-linecap:round;stroke-linejoin:round;stroke-miterlimit:4;stroke-dasharray:none;stroke-dashoffset:0;stroke-opacity:1"
         d="m 392.88688,1689.1294 c -15.06876,-8.0092 -17.07843,-9.4434 -17.07843,-12.1882 0,-2.0408 0.98626,-1.7845 6.7286,1.7488 3.70073,2.2771 10.58411,5.7068 15.29639,7.6216 7.5494,3.0676 10.11941,3.4239 21.62159,2.9977 17.03389,-0.6312 21.90185,-2.964 28.95406,-13.8751 7.35826,-11.3847 6.86268,-5.4438 -0.55522,6.6558 -5.68648,9.2754 -6.01933,9.5524 -13.32117,11.0892 -4.11894,0.8668 -12.71497,1.6174 -19.1023,1.6679 -11.11847,0.088 -12.07908,-0.1557 -22.54352,-5.7177 z"
         id="path1327"
         inkscape:connector-curvature="0"
         transform="scale(2.0833333)" />
      <path
         style="opacity:0.87999998;fill:#0c0b09;fill-opacity:1;stroke:#0c0b09;stroke-width:1.78354669;stroke-linecap:round;stroke-linejoin:round;stroke-miterlimit:4;stroke-dasharray:none;stroke-dashoffset:0;stroke-opacity:1"
         d="m 708.4962,1655.9235 c -2.25435,-0.3074 -9.1401,-1.2256 -15.30166,-2.0404 -13.03187,-1.7234 -21.47324,-5.3924 -41.88232,-18.2038 -10.78308,-6.7689 -15.51166,-8.9743 -19.24179,-8.9743 -7.97746,0 -40.39067,-18.0855 -40.39067,-22.5367 0,-1.008 -0.39516,-2.8625 -0.87814,-4.1211 -0.77684,-2.0244 -0.26458,-1.9789 4.44039,0.3946 2.92519,1.4756 12.58325,5.2219 21.46236,8.325 19.71419,6.8899 16.58069,5.1905 42.92488,23.279 l 21.81844,14.9809 14.20739,2.085 c 23.65722,3.4718 37.7645,4.0224 47.96995,1.8725 7.02655,-1.4803 9.31632,-1.5494 9.79735,-0.2959 1.30441,3.3992 -6.57671,5.2284 -23.74893,5.5121 -9.39314,0.1551 -18.9229,0.031 -21.17725,-0.2769 z"
         id="path1329"
         inkscape:connector-curvature="0"
         transform="scale(2.0833333)" />
      <path
         style="opacity:0.87999998;fill:#0c0b09;fill-opacity:1;stroke:#0c0b09;stroke-width:1.78354669;stroke-linecap:round;stroke-linejoin:round;stroke-miterlimit:4;stroke-dasharray:none;stroke-dashoffset:0;stroke-opacity:1"
         d="m 722.15894,1650.3103 c -3.75725,-0.192 -14.20925,-1.348 -23.22666,-2.569 l -16.39529,-2.2199 -21.72785,-14.9371 c -26.06571,-17.9192 -23.20934,-16.3461 -41.72463,-22.9787 -29.30933,-10.4993 -30.0702,-11.0276 -30.11864,-20.9142 -0.016,-3.2727 5.84306,-32.3624 7.58057,-37.6365 0.42824,-1.2999 2.13132,-0.6093 5.94391,2.4103 15.36096,12.1661 27.32811,10.8502 48.43277,-5.3256 l 8.96296,-6.8697 22.07373,27.4087 c 21.18684,26.3075 22.79468,27.9453 40.01721,40.7645 28.50368,21.2161 36.98596,32.1317 30.22362,38.8941 -2.735,2.735 -17.09815,4.6346 -30.0417,3.9731 z"
         id="path1331"
         inkscape:connector-curvature="0"
         transform="scale(2.0833333)" />
      <path
         sodipodi:nodetypes="ccccccccccccccccccccccccccccccccccccccccccccccccccccccscccccccccccccccccccccccccccccccccccscccccccccccccccscccccccccccccccccccccccccccccccccccccccccccccccccccccccccccccccccccccccccccccccccccccccccccccccccccccccscccccsccccccccccccccccccccccccccccccccccccccccccccccccccccccccccccccccccccccccccccsccccccccccccccccccccccccccccccccccccccccccccccccccccccccccccccccccccccccccscccccccccccccccccccccccccccccccccccccccsccccccccccccscccccscccccccccccccccccccccccccccccccccccccc"
         inkscape:connector-curvature="0"
         id="Andrew"
         d="m 1131.96,680.2 v -15.28 l -23.88,-22.93 c 0,0 -22.35,-12.48 -48.72,-21.5 -29.36,-10.04 -72.06,-16.72 -72.06,-16.72 0,0 -19.16,-5.74 -28.66,-13.85 -10.07,-8.6 -10.51,-19.59 -10.51,-19.59 0,0 -5.9,4.41 -9.07,10.51 -3.03,5.83 -3.35,13.38 -3.35,13.38 0,0 -4.85,-8.25 -12.89,-11.47 -8.66,-3.46 -20.54,-1.91 -20.54,-1.91 0,0 10.7,8.44 13.85,18.15 2.51,7.74 -2.39,17.2 -2.39,17.2 0,0 -7.23,-11.13 -18.63,-15.76 -15.99,-6.51 -37.73,-7.17 -37.73,-7.17 0,0 15.14,9.63 18.62,19.59 3.19,9.11 -5.25,18.63 -5.25,18.63 0,0 -7.24,-9.26 -17.2,-14.33 -13.77,-7.03 -31.52,-5.74 -31.52,-5.74 0,0 13.46,11.11 15.28,21.02 1.48,8.05 -8.6,15.29 -8.6,15.29 0,0 -8.05,3.58 -11.94,-0.96 -6.74,-7.87 -4.3,-26.27 -4.3,-26.27 0,0 -8.91,8.12 -11.46,19.59 -3.51,15.77 6.21,36.3 6.21,36.3 0,0 -8.14,3.49 -12.9,-0.95 -5.87,-5.48 -8.6,-19.11 -8.6,-19.11 0,0 -6.6,8.2 -7.64,19.58 -1.32,14.51 2.87,32.97 2.87,32.97 0,0 -7.46,-1.38 -10.99,-7.17 -3.14,-5.16 -2.39,-14.81 -2.39,-14.81 0,0 -8.42,10.86 -9.55,22.45 -1.25,12.72 4.77,26.28 4.77,26.28 0,0 -0.98,6.77 -4.29,7.16 -4.6,0.54 -11.95,-5.25 -11.95,-5.25 0,0 2.66,17.09 7.17,30.09 3.47,10.01 6.69,14.81 6.69,14.81 -9.08,14.33 -1.39,45.88 -1.44,45.86 l 17.2,64.01 27.07,51.6 2.07,66.4 c 0,0 2.75,15.74 6.21,32 3.7,17.39 8.12,35.35 8.12,35.35 L 831,1106 c 0,0 22.07,18.64 51,39 29.11,20.49 69.96,41.57 69.96,41.57 0,0 31.1,5.63 58.27,3.82 26.56,-1.77 51.59,-9.55 51.59,-9.55 0,0 25.25,-22.96 47.77,-51.59 19.54,-24.85 40.41,-64.25 40.41,-64.25 0,0 0.58,-39.32 1.63,-88.62 1.09,-51.68 -5.26,-103.66 -5.26,-103.66 l 10.43,-46.34 c 0,0 20.4,-21.79 17.2,-42.04 -2.43,-15.37 -10.51,-15.28 -10.51,-16.24 0,-0.95 -7.64,-38.22 -7.64,-38.22 l -10.51,-8.59 0.95,-24.84 -15.28,-13.38 z m -333.9,351.4 c -8.97,-4.71 -20.32,-12.66 -24.12,-24.01 -35.67,-92.99 -16.56,-106.37 -8.92,-107.01 3.83,-0.63 21.66,14.65 21.66,14.65 m 360.19,-38.58 c 0,0 2.79,-1.46 5.39,-1.96 3.09,-0.6 6.37,-0.32 6.37,-0.32 0,0 1.71,3.01 2.87,6.05 1.37,3.6 2.23,7.32 2.23,7.32 0,0 -4.74,9.25 -6.05,14.33 -0.73,2.8 -0.32,3.51 -0.32,3.51 0,0 5.29,30.8 7.32,47.77 0.78,6.49 -0.32,10.83 -0.32,10.83 0,0 -2.01,3.7 -3.82,8.28 -1.42,3.59 -2.09,11.78 -3.5,15.6 -2.14,5.81 -4.78,6.69 -4.78,6.69 M 940.24,890.94 887.7,895.71 c 0,0 -6.8,0.6 -13.13,2.61 -11.58,3.67 -29.55,11.41 -29.55,11.41 0,0 9.56,-12.52 20.38,-20.7 10.67,-8.06 24.21,-14.33 24.21,-14.33 0,0 19.43,-2.14 37.73,-2.39 16.48,-0.23 32.01,1.43 32.01,1.43 l 18.15,7.64 c 0,0 1.8,7.13 1.43,11.95 -0.34,4.49 -2.86,6.68 -2.86,6.68 0,0 -3.75,0.66 -10.03,-0.95 -10.98,-2.81 -25.8,-8.12 -25.8,-8.12 z m 107.47,-20 c 0,0 16.97,-3.02 31.05,-4.78 10.08,-1.26 19.58,1.44 19.58,1.44 0.46,0.55 7.32,2.79 13.38,5.25 5.13,2.09 9.07,3.82 9.07,3.82 0,0 2.37,2.8 4.52,6.82 1.04,1.96 2.18,4.33 3.3,6.6 3.01,6.13 5.08,12.86 5.08,12.86 0,0 -10.86,-9.19 -23.41,-13.38 -11.78,-3.93 -25.31,-2.86 -25.31,-2.86 0,0 -14.04,0.53 -28.66,3.82 -16.12,3.62 -32.81,9.08 -34.89,9.47 -1.57,-0.74 -0.33,-5.54 -0.46,-10.91 -0.1,-3.98 1.91,-7.64 1.91,-7.64 0,0 5.68,-2.4 11.61,-4.91 6.47,-2.74 13.23,-5.6 13.23,-5.6 z M 807.58,1036.3 c -1.91,2.78 -6.08,0.89 -8.31,-2.77 -2.23,-3.66 0.19,-9.98 0.19,-9.98 0,0 0.73,-2.35 2.76,-2.35 0.54,0.06 -0.43,2.17 -0.43,2.17 0,0 -1.22,6.6 1.65,9.81 0.44,0.87 2.59,2.2 2.59,2.2 0.21,0.33 4.38,2.33 4.48,2.22 M 1028.67,762 c 0,0 18.66,42.67 -12.67,34 -93.33,-26 -89.33,-85.33 -89.33,-85.33 0,0 21.42,17.88 40,28 14.61,7.95 27.33,8.66 27.33,8.66 m 162.67,46 c 0,0 -13.07,14.96 -26,21.34 -10,6 -21.34,2 -21.34,2 0,0 11.74,-8.37 14,-21.34 3.47,-19.85 -2,-47.33 -2,-47.33 0,0 -3.41,24.44 -17.33,26 -32,0.67 -42,-19.33 -42,-19.33 0,0 -0.21,11.22 -8.67,17.33 -7.09,5.13 -19.33,5.33 -19.33,5.33 M 1159,823 c 0,0 -1.27,-6.52 -3.33,-11.33 C 1153.26,806.04 1150,802 1150,802 M 925.5,762.5 c 0,0 -18.63,10.31 -31,9 C 881.03,770.07 873.74,757 874,757 c 0,0 -9,36.5 19.5,40 21.79,3 60.5,-29 60.5,-29 m -112.5,11.5 c 0,0 -7.22,10.01 -7,18.5 0.27,10.54 16.5,18 16.5,18 0,0 -6.13,-12.17 -1,-21 5.6,-9.63 22.5,-16 22.5,-16 m -37,9 c 0,0 -8.22,4.79 -11,15.5 -2.13,8.21 1,23 1,23 0,0 -19.14,-10.71 -22,-25 C 801.16,789.81 815,774 815,774 m -11.73,30.36 c 0,0 -10.8,4.96 -19.77,0.14 -10.85,-5.83 -22.5,-21 -22.5,-21 m 171.33,178.08 -7,0.67 c 0,0 -14.83,0.5 -24.58,-1.25 C 889,959 864,934.25 864,934.25 c 0,0 23.18,-20.74 49.5,-23.5 23.52,-2.47 52.5,19 52.5,19 0,0 -51.5,-36 -92.55,4.68 4.25,8.75 15.88,20.82 15.88,20.82 m 180.08,-8.95 c 0,0 15.25,2.64 25.42,-2.22 19,-6 25.67,-24.33 25.67,-24.33 -0.67,0 -14.33,-18.33 -45.5,-17 -25,1 -35.5,20 -35.5,20 0,0 5.95,-14.25 39.36,-17 17.69,-0.79 36.14,13.5 36.14,13.5 0.33,6 -11.25,20.5 -11.25,20.5 M 955,923.55 c 0,0 1,2.72 1.18,6 0.26,4.65 -1.27,9.18 -1.27,9.18 m 91.68,-22.99 c 0,0 -0.74,7.07 -0.04,11.44 0.62,3.94 1.63,6.27 1.63,6.27 M 814,820.67 l -12.67,24 c 0,0 0.49,51.91 13.34,102 13.79,53.78 40,106 40,106 0,0 13.49,8.34 25.33,13.33 9.15,3.86 17.33,4.67 17.33,4.67 l 12,32.66 10.67,-30.66 c 0,0 15.97,-5.75 32.67,-10 17.29,-4.41 35.33,-7.34 35.33,-7.34 0,0 11.08,5.89 19.33,5.34 11.27,-0.75 20.67,-8 20.67,-8 0,0 22.36,5.2 38.67,9.33 9.25,2.34 16.66,4.67 16.66,4.67 l 14.67,22 2.67,-28 c 0,0 6.15,-1.86 12.66,-6 8,-5.09 16.67,-12.67 16.67,-12.67 0,0 9.46,-24.9 15.33,-46.33 4.42,-16.14 5.67,-30.34 5.67,-30.34 M 1048.5,1005 c 0,0 6.13,12.63 0.75,21.25 -3.25,5.5 -12.02,1.63 -18,4.75 -7.24,3.78 -9,13 -17.25,12.75 -11.5,0.75 -13.75,-7.25 -21.75,-8.75 -7.63,-2.77 -16.72,-2.01 -21.25,-6.25 -7.33,-6.86 -4.5,-15.75 -4.5,-15.75 m 91.83,114.67 c 17.34,-8 14.34,-41.67 14.34,-41.67 l -60,-7.67 L 938,1090 c 0,0 -3,36 22.67,45.33 26.66,8.34 35,-18.66 35,-18.66 l 31,-1.34 c 0,0 11.66,25 31.66,12.34 z m -85.87223,-30.6212 c 12.38329,2.6836 18.28223,3.2612 39.87223,2.2812 20.55,-0.93 40.34,-5.33 40.34,-5.33 M 892,1153 c 0,0 2.41,20.33 1,40 -1.35,18.81 -5.01,16 -5.5,16 -0.16,0 -10.12,0.55 -16.5,4.5 -6.06,3.76 -13,8.83 -13,15.5 -19.19,11.06 -59.88,31.47 -81,43 -33.32,18.19 -66,33 -66,33 l -51.5,52 c 0,0 -10,82 -10,88 0,2.73 5.1,56.24 6,114 1.08,69.03 -2,229 -2,229 l 4,108 c 0,0 27.37,146.34 41.2,220.28 -1.37,23.39 7.8,41.72 7.8,41.72 0,0 -7.32,29.57 -10,58 -2.16,22.93 -1.77,43.62 -2,49 1.71,7.22 8.28,19.42 14.5,31 1.33,2.48 2.31,5.53 3.83,8 0.22,2.7 0.85,6.1 1.17,8.25 1.8,11.94 5.33,14.69 10.5,13.75 3.16,7.25 5.5,8.25 5.5,8.25 0,0 3.6,2.33 7,2.5 3.05,0.16 5.99,-0.7 7,-0.75 0.75,-0.04 8.07,5.37 11.64,4.82 3.78,-0.58 5.47,-1.57 6.47,-1.62 2.48,-0.1 5.13,0.44 7.34,0.16 3.16,-0.38 5.84,-1.97 9.43,-2.17 12.9,-0.69 22.62,2.63 22.62,2.63 0,0 2.31,-0.62 4,-2.25 1.81,-1.74 3,-6.32 3,-6.32 M 1078,1164 c 0,0 -0.28,18.36 3,36 3.22,17.36 18.8,10.73 28,23 22.05,12.14 68.56,28.51 101.5,44.5 29.41,14.28 46.5,31.5 46.5,31.5 0,0 10.56,11.85 19,37 10.54,31.41 19.91,81.34 26,129 11.99,93.82 -6,209 3.5,247 0,0 19.98,32.51 26,96 4.03,42.5 -0.63,88.78 0.5,126 1.85,60.85 7.75,102.67 7.75,102.67 0,0 6,21.58 3.25,33.83 2.89,30.3 8.33,84.67 8.33,84.67 0,0 -6.58,20.95 -11.33,41.33 -5.15,22.09 -5.41,46.02 -12,54 -12,15.33 -32.67,27.33 -32.67,27.33 0,0 -8.89,-0.22 -10.66,-7.33 -0.91,-3.62 2.66,-17.17 2.66,-17.17 M 1138.25,810.38 c 0,0 5.32,10.01 7.08,23.95 2.19,17.35 0.85,38.58 0.85,38.58 M 799.5,1487 c 0,0 -4.12,45.65 -12,96 -9.89,63.18 -24,219 -24,219 0,0 8.32,33.81 10,80 -5.06,70.8 -3.09,157.52 -0.83,207.67 4.5,26.18 2.83,42.33 2.83,42.33 0,0 4.05,12.22 11.5,23 8.7,12.58 15.5,28 15.5,28 0,0 3.52,41.98 6.5,79.5 3.02,37.97 8.25,49.25 7.5,57 2.25,6.75 -13.21,18.66 -17.5,10 -7.01,-14.16 -14.12,-47.48 -20,-66 -6.22,-19.59 -11,-27.67 -11,-27.67 0,0 -4.81,27.35 -4.85,27.69 -0.02,0.27 0.48,17.27 4.85,27.98 5,5.33 8,16 9,26 0,0 3.58,-3.15 7.5,-3.5 4.53,-0.4 9.5,2 9.5,2 M 727.5,1301 c 0,0 46.8,44.8 66,96 16.61,44.3 6,96 6,96 M 1109,1224 c 0,0 -5,38 -55,63 -38.5,14 -111.7,19.26 -145,0 -33.93,-19.63 -51.5,-57.5 -51.5,-57.5 m 226.14,-21.68 c 0,0 -15.64,28.51 -55.64,48.18 -14.67,2 -63.19,9.17 -87,-2 -34.54,-16.2 -52.5,-43.5 -52.5,-43.5 m 428.17,928 c 0,0 -11.26,10.03 -12.67,18.67 -4.44,27.21 -2,88.66 -2,88.66 0,0 -9.2,8.49 -14,8.67 -4.16,0.15 -11.5,-7.17 -11.5,-7.17 0,0 0.83,-29.84 0.83,-50.16 v -39.34 c 0,0 -9.76,-25.32 -12.66,-48 -2.77,-21.63 9.58,-41.58 9.58,-41.58 0,0 -2.21,-3.75 -3.75,-9.33 -2.27,-8.23 -3.75,-19.75 -3.75,-19.75 L 1221,1879 l -10.83,-88.33 -14,-121.67 m -410.67,-90 10.5,111 18,110 9.5,103 c 0,0 -5.11,49.15 -6,82 -0.42,15.49 3.67,25.33 3.67,25.33 L 820.5,2064 c 0,0 131.25,24.25 234,16.5 96.02,-7.24 184.5,-40.5 184.5,-40.5 l -9,-52 c 0,0 -2.11,-9.82 -3,-20.5 -3.75,-45.13 -17.5,-161.83 -17.5,-161.83 l -14,-110.67 4,-90 6,-100 c 0,0 2,-62 0,-128 7.02,-42.51 33.83,-90.33 33.83,-90.33 M 822.5,2011 c 0,0 114.62,16.28 220,10 95.65,-5.7 187.5,-34.5 187.5,-34.5 M 802.5,1527 c 0,0 128.04,-1.32 231,-6 94.7,-4.3 171,-22.5 171,-22.5 m -477.25,759.5 -2,8.5 c 0.55,0.46 8.65,15.92 16,32 8.01,17.52 20.8,40.82 20.5,40.57 m -51.5,-78.07 -0.5,5.75 c 0,0 6.99,18.34 16.08,35.75 8.65,16.57 17.92,33 17.92,33 M 1076.08,905.88 c 18,-2 30.06,32.08 2,36.66 -25.58,-0.98 -24.66,-33.33 -2,-36.66 z M 918,914 c 26,-0.67 31.33,40.67 1.33,42 -28.66,-0.67 -30,-40.67 -1.33,-42 z M 724.75,2326 c 0,0 -3.61,-12.56 -8.5,-25.5 -5.89,-15.57 -14.75,-32 -14.75,-32 l 0.75,-5.25 M 1304,2161.67 c 0,0 5.05,4.64 5.5,15 0.73,16.78 -7,52 -7,52 m 36.83,-70.5 2.34,8.66 c 0,0 -6.36,20.82 -11,42.34 -5.02,23.24 -6.34,44.33 -6.34,44.33 m 18.17,-182.33 c 0,0 -20.51,-8.54 -40.5,-10.17 -9.58,-0.78 -27,6.67 -27,6.67 m 64,-31.5 c 0,0 -10.96,-7.13 -26.5,-9.17 -6.39,-0.84 -15.76,2.15 -22,2.17 -10.92,0.03 -23,10 -23,10 m -570.17,77.16 c 0,0 18.16,-11.61 36.67,-18 19.15,-6.6 38.67,-8 38.67,-8 m 2,42 c 0,0 -24.42,3.92 -43.34,11.34 -14.48,5.68 -24.66,15.33 -24.66,15.33 m 113.83,-94.5 c 0,0 -5.78,18.47 -8.5,39.5 -3.44,26.57 -6,123.67 -6,123.67 M 798.33,2339 834,2654 c 0,0 1.34,45.02 -2,84 -2.55,29.76 -10,56 -10,56 0,0 8.2,125.33 14,238 6.19,120.09 10,244 10,244 0,0 36.3,-13.57 59.5,-5.5 13.66,4.75 32,30 32,30 0,0 4.2,3.92 16,-3 9.75,-5.72 22.5,-19.37 22.5,-19.37 m 0,-0.13 c 0,0 12.07,-222.67 18,-372 2.99,-75.22 2,-148 2,-148 l 18,-70 41.5,-332 18,-3 c 0,0 10.43,141.34 27.5,234 19.52,105.95 36,219 36,219 0,0 -8.89,76.17 12,155.5 29.01,55.31 61.39,116.77 63,168 18.85,48.4 28.5,85.5 28.5,85.5 0,0 28.43,35.27 57,33 36.46,-2.9 75,-43.5 75,-43.5 l -6,-37.5 c 0,0 -8.49,-56.8 -21,-150 -7.72,-57.51 -25.22,-137.34 -31.5,-195 -10.26,-94.14 -10.5,-170.5 -10.5,-170.5 l -11,-28.5 c 0,0 -10.05,-175.98 -10,-283 0.03,-79.75 -9.17,-155.33 -9.17,-155.33 0,0 -4.33,-27.67 -11.33,-60.67 -2.95,-52.82 -22.5,-83.5 -22.5,-83.5 m 2.5,1181.5 -14,62 c 0,0 -3.08,11.25 -2.67,24 0.33,10.17 4.13,21.21 4.38,28.87 0.17,5.5 0.29,9.13 0.29,9.13 0,0 22.66,16.7 43.33,28.67 16.96,9.82 32.67,15.33 32.67,15.33 h 20 c 0,0 25.34,17.83 50,32 22.21,12.76 44,22 44,22 0,0 61.55,10.5 105.5,10.5 28.71,0 46.5,-10.5 46.5,-10.5 0,0 0.25,-6.25 -2.25,-11 0.18,-4.79 5.53,-9.84 4.92,-15 -1.12,-9.39 -8.34,-19.67 -8.34,-19.67 0,0 -13.73,-14.63 -31.83,-29.33 -27.77,-22.56 -64.5,-47 -64.5,-47 l -98,-122 m -395.87,77.88 3.87,4.12 6,72 -26,38 -8,64 c 0,0 -8.98,18.47 -20,35 -4.12,6.18 -10.08,15.36 -20.67,20.67 -11.76,5.9 -28.47,7.61 -38.33,7.33 -16.07,-0.46 -30,-2 -30,-2 0,0 -12.14,-4.18 -24.67,-10 -15.21,-7.06 -32.33,-19 -32.33,-19 0,0 -4,-7.52 -4,-15.67 0,-7.84 4,-16.33 4,-16.33 l 18,-52 26,-42 6,-42 -2,-20 11.33,-24.67 m -62,204.67 c 0,0 -0.61,2.86 -1.33,7 -1.05,6.01 -1,12 -1,12 0,0 16.98,11.81 33,20.67 13.62,7.53 26.67,12.33 26.67,12.33 0,0 28.29,1.54 51,-0.33 16.67,-1.38 29.66,-6.34 29.66,-6.34 0,0 8.04,-10.68 14.34,-21 5.67,-9.29 9.66,-18.33 9.66,-18.33 0,0 0.92,-3.9 1,-7.67 0.09,-4.06 -0.66,-8 -0.66,-8 m 283.66,-143 c 0,0 16.71,8.19 37.34,16 16.29,6.17 35.17,11.34 49.33,17.34 17.71,7.5 22,12.66 22,12.66 l 82.67,56 c 0,0 57.05,10.96 99.33,11.34 29.29,0.26 49.75,-8.17 49.75,-8.17 M 759,945 c 0,0 -1,-28 3.5,-25.5 10,4.34 34.5,42 34.5,42 0,0 -4,10.5 -4.5,19.5 0.35,7.29 6,12 6,12 M 766,954.5 c 0,0 0.88,-9.03 2,-17 0.84,-6 2,-11.5 2,-11.5 m 23.25,61.5 c 0,0 -2.94,2.6 -6.5,2.75 -5.23,0.22 -11,-5 -11,-5 0,0 -2.14,-10.31 -1.5,-21.25 0.45,-7.76 3,-14.25 3,-14.25 l 8.5,-3"
         style="fill:none;stroke:#000000;stroke-width:3.71572232;stroke-linecap:round;stroke-linejoin:round;stroke-miterlimit:4;stroke-dasharray:none" />
      <path
         sodipodi:nodetypes="cccccccccccccccccccccccccccccccc"
         inkscape:connector-curvature="0"
         id="path1188"
         d="m 916.33509,940.29148 -1.3164,-0.52666 -0.9633,-2.53366 -0.9634,-2.53367 1.5519,-2.36835 1.5518,-2.36833 h 2.958 2.958 l 1.5519,2.36834 1.5518,2.36835 -0.9514,2.50211 -0.9513,2.50211 -1.6607,0.63728 -1.6607,0.63728 -1.1698,-0.0791 -1.1699,-0.079 z m 158.04741,-12.82118 -1.2359,-1.48911 0.6278,-2.50126 0.6278,-2.50127 2.5012,-0.62779 2.5013,-0.62777 1.4891,1.23585 1.4891,1.23584 v 2.1806 2.18064 l -1.2017,1.20168 -1.2017,1.20169 h -2.1806 -2.1806 z"
         style="fill:#0c0b09;fill-opacity:1;stroke-width:1.78354669" />
      <g
         style="stroke-width:1.78354669"
         id="g1347">
        <path
           style="fill:#ffffff;stroke-width:1.78354669"
           d="m 915.16299,931.78909 2.071,-2.9085 v -1.2687 -1.2686 l -1.6573,-1.8313 -1.6574,-1.8313 h -2.5198 -2.5198 l -1.8313,1.6573 -1.8313,1.6573 v 2.5198 2.5198 l 1.6573,1.8313 1.6573,1.8313 h 2.2801 2.2802 z"
           id="path1200"
           inkscape:connector-curvature="0"
           sodipodi:nodetypes="ccccccccccccccccc" />
        <path
           sodipodi:nodetypes="ccccccccccccccccccccccc"
           inkscape:connector-curvature="0"
           id="path1351"
           d="m 930.14659,944.90923 1.2067,-1.454 -0.3331,-1.6932 -0.333,-1.6933 -1.7525,-1.1036 -1.7524,-1.1036 -1.7525,1.1036 -1.7525,1.1036 -0.333,1.6933 -0.333,1.6932 1.2067,1.454 1.2067,1.454 h 1.7576 1.7575 z m 155.30331,-19.5301 -1.5335,0.5884 -1.5335,0.5885 -0.6397,2.5489 -0.6397,2.5488 1.7471,1.2776 1.7471,1.2775 c 5.9122,-2.0156 4.5014,-5.1804 0.8522,-8.8297 z"
           style="fill:#ffffff;stroke-width:1.78354669" />
        <path
           sodipodi:nodetypes="ccccccccccccccccc"
           inkscape:connector-curvature="0"
           id="path1343"
           d="m 1074.4022,920.97866 2.071,-2.9085 v -1.2687 -1.2686 l -1.6573,-1.8313 -1.6574,-1.8313 h -2.5198 -2.5198 l -1.8313,1.6573 -1.8313,1.6573 v 2.5198 2.5198 l 1.6573,1.8313 1.6573,1.8313 h 2.2801 2.2802 z"
           style="fill:#ffffff;stroke-width:1.78354669" />
      </g>
    </g>
    <path
       inkscape:connector-curvature="0"
       id="path1535"
       d="m 148.52743,555.58384 c -5.80085,-0.25604 -7.60045,-0.64333 -10.43637,-2.24625 -1.29052,-0.72958 -1.79156,-1.16333 -3.31888,-2.87375 -2.48177,-2.77913 -4.20127,-4.948 -5.6665,-7.14731 l -1.24445,-1.86794 1.03781,-0.95446 c 2.26364,-2.08183 5.18727,-4.09208 8.03008,-5.52142 1.48706,-0.74768 4.00046,-1.7965 4.30515,-1.7965 0.0931,0 -0.14646,0.48867 -0.53248,1.08594 -1.44923,2.24223 -2.02892,4.52538 -1.91496,7.54223 0.13687,3.62079 1.23587,6.15627 3.78094,8.72217 1.17006,1.17958 1.72381,1.58208 3.11325,2.26229 2.47152,1.21021 3.55348,1.45708 6.40441,1.46104 1.97961,0 2.65034,-0.0687 3.81684,-0.40437 4.51189,-1.29938 7.6365,-4.56428 8.57027,-8.95496 0.38831,-1.82592 0.24737,-5.12457 -0.29148,-6.82209 -0.5085,-1.60185 -1.36854,-3.3041 -2.28673,-4.52593 -0.40004,-0.53236 -0.70435,-0.99094 -0.67625,-1.01907 0.0573,-0.0573 2.66223,0.64034 4.29881,1.15117 2.17363,0.67848 5.77208,2.21515 5.86167,2.50317 0.30866,0.99235 0.43202,2.96314 0.26756,4.27473 -0.63183,5.0391 -3.49035,9.21595 -8.5905,12.55256 -3.4866,2.28083 -3.68652,2.35479 -6.95056,2.57437 -3.01808,0.20209 -3.08513,0.20209 -7.57763,0 z"
       style="opacity:0.87999998;fill:#ffffff;fill-opacity:1;stroke:none;stroke-width:2.08333325;stroke-linecap:round;stroke-linejoin:round;stroke-miterlimit:4;stroke-dasharray:none;stroke-dashoffset:0;stroke-opacity:1" />
    <path
       inkscape:connector-curvature="0"
       id="path1537"
       d="m 238.01127,546.94184 c -4.7578,-0.57436 -8.18463,-2.19461 -11.16528,-5.27908 -1.43522,-1.48521 -1.66177,-1.91142 -2.072,-3.89811 -0.37535,-1.81777 -0.39402,-6.13 -0.0288,-6.65144 0.34536,-0.49306 3.27342,-1.92364 5.45732,-2.66629 0.98289,-0.33425 1.86789,-0.60771 1.96664,-0.60771 0.0988,0 -0.11,0.39436 -0.46373,0.87636 -0.78981,1.07594 -1.75237,3.14952 -2.07062,4.46064 -0.13063,0.53815 -0.22971,1.779 -0.22019,2.75746 0.0304,3.12338 1.14867,5.68913 3.3754,7.7445 1.82008,1.68002 4.01631,2.64329 6.90229,3.02736 1.30254,0.17333 1.64452,0.15312 3.05069,-0.18042 2.42739,-0.57583 4.306,-1.56808 5.84743,-3.08848 2.09271,-2.06412 2.94123,-4.15425 2.94123,-7.24496 0,-2.9915 -0.95452,-5.69502 -2.87229,-8.13533 -1.0251,-1.30444 -1.15062,-1.2861 1.8049,-0.26358 3.53777,1.22395 10.13752,4.88087 10.13946,5.61827 0.002,1.05116 -2.15084,4.89566 -4.71338,8.41402 -1.39348,1.91327 -1.78012,2.17093 -5.43967,3.62481 -3.16587,1.25779 -4.22335,1.4515 -8.25879,1.513 -1.95689,0.0298 -3.83819,0.0208 -4.18064,-0.021 z"
       style="opacity:0.87999998;fill:#ffffff;fill-opacity:1;stroke:none;stroke-width:2.08333325;stroke-linecap:round;stroke-linejoin:round;stroke-miterlimit:4;stroke-dasharray:none;stroke-dashoffset:0;stroke-opacity:1" />
  </g>
</svg>
