<?xml version="1.0" encoding="UTF-8" standalone="no"?>
<!-- Created with Inkscape (http://www.inkscape.org/) -->

<svg
   xmlns:dc="http://purl.org/dc/elements/1.1/"
   xmlns:cc="http://creativecommons.org/ns#"
   xmlns:rdf="http://www.w3.org/1999/02/22-rdf-syntax-ns#"
   xmlns:svg="http://www.w3.org/2000/svg"
   xmlns="http://www.w3.org/2000/svg"
   xmlns:sodipodi="http://sodipodi.sourceforge.net/DTD/sodipodi-0.dtd"
   xmlns:inkscape="http://www.inkscape.org/namespaces/inkscape"
   version="1.1"
   id="svg901"
   width="24"
   height="24"
   viewBox="0 0 24 24"
   sodipodi:docname="birthday.svg"
   inkscape:version="0.92.2 5c3e80d, 2017-08-06">
  <metadata
     id="metadata907">
    <rdf:RDF>
      <cc:Work
         rdf:about="">
        <dc:format>image/svg+xml</dc:format>
        <dc:type
           rdf:resource="http://purl.org/dc/dcmitype/StillImage" />
        <dc:title></dc:title>
      </cc:Work>
    </rdf:RDF>
  </metadata>
  <defs
     id="defs905" />
  <sodipodi:namedview
     pagecolor="#ffffff"
     bordercolor="#666666"
     borderopacity="1"
     objecttolerance="10"
     gridtolerance="10"
     guidetolerance="10"
     inkscape:pageopacity="0"
     inkscape:pageshadow="2"
     inkscape:window-width="1345"
     inkscape:window-height="821"
     id="namedview903"
     showgrid="false"
     inkscape:zoom="8"
     inkscape:cx="6.7942648"
     inkscape:cy="10.634978"
     inkscape:window-x="0"
     inkscape:window-y="0"
     inkscape:window-maximized="0"
     inkscape:current-layer="svg901" />
  <path
     inkscape:connector-curvature="0"
     id="path4925"
     d="m 6.5542015,17.653018 c 0.3677,-0.068 0.7905,0.1406 1.0979,0.2321 2.6390005,3.2733 2.4592005,-0.3049 4.4468005,-0.5 1.1516,-0.058 2.1104,3.8512 4.1968,0.4375 0.2964,-0.2984 0.7313,-0.2322 1.0211,-0.2321"
     style="fill:none;stroke:#ffffff;stroke-width:1;stroke-opacity:1"
     sodipodi:nodetypes="ccccc" />
  <path
     sodipodi:nodetypes="ccccc"
     style="fill:none;stroke:#ffffff;stroke-width:1;stroke-opacity:1"
     d="m 5.0888037,22.817018 c -0.6504,-2.7148 -0.6161,-5.6512 0,-8.2395 4.4824,-1.3138 9.3228003,-1.3275 13.9192003,0 0.5001,2.4651 0.5025,5.705 0,8.2395 -4.7552,0.8032 -9.4662003,0.4417 -13.9192003,0 z"
     id="path843"
     inkscape:connector-curvature="0" />
  <path
     inkscape:connector-curvature="0"
     id="path845"
     d="m 10.120589,12.083418 c 0,0 -0.0376,-1.7277 0.069,-2.857 0.9248,-0.4455 2.5228,-0.4676 3.3683,-0.052 0.1926,1.211 0.2852,1.7318 0.2923,2.9104"
     style="fill:none;stroke:#ffffff;stroke-width:1;stroke-opacity:1"
     sodipodi:nodetypes="cccc" />
  <path
     sodipodi:nodetypes="csccc"
     style="fill:none;stroke:#ffffff;stroke-width:1‚;stroke-opacity:1"
     d="m 13.058604,7.025018 c -0.09457,-1.1440936 0.281837,-0.4029275 0.382353,-0.5902405 1.0103,-1.8827141 -0.594946,-2.8540859 -1.631153,-4.1720595 0.1749,1.6919 -2.0009,2.0904 -1.9067,3.1708 0.1541,0.8127 1.1048,0.842 1.1879,1.5784"
     id="path847"
     inkscape:connector-curvature="0" />
</svg>
